<?xml version="1.0" encoding="UTF-8" standalone="no"?>
<!DOCTYPE svg PUBLIC "-//W3C//DTD SVG 1.1//EN"
 "http://www.w3.org/Graphics/SVG/1.1/DTD/svg11.dtd">
<!-- Generated by graphviz version 14.1.5 (0)
 -->
<!-- Title: mission_blackbox Pages: 1 -->
<svg width="1346pt" height="351pt"
 viewBox="0.00 0.00 1346.00 351.00" xmlns="http://www.w3.org/2000/svg" xmlns:xlink="http://www.w3.org/1999/xlink">
<g id="graph0" class="graph" transform="scale(1 1) rotate(0) translate(4 346.75)">
<title>mission_blackbox</title>
<polygon fill="white" stroke="none" points="-4,4 -4,-346.75 1342,-346.75 1342,4 -4,4"/>
<text xml:space="preserve" text-anchor="middle" x="669" y="-323.55" font-family="Helvetica,sans-Serif" font-size="16.00">Mission Module — Black&#45;Box Data Flow</text>
<g id="clust1" class="cluster">
<title>cluster_mission</title>
<path fill="#f3f7fd" stroke="#3b6ea5" d="M200.38,-123.25C200.38,-123.25 960,-123.25 960,-123.25 966,-123.25 972,-129.25 972,-135.25 972,-135.25 972,-295.25 972,-295.25 972,-301.25 966,-307.25 960,-307.25 960,-307.25 200.38,-307.25 200.38,-307.25 194.38,-307.25 188.38,-301.25 188.38,-295.25 188.38,-295.25 188.38,-135.25 188.38,-135.25 188.38,-129.25 194.38,-123.25 200.38,-123.25"/>
<text xml:space="preserve" text-anchor="middle" x="580.19" y="-288.05" font-family="Helvetica,sans-Serif" font-weight="bold" font-size="16.00">Mission module</text>
</g>
<!-- wpfile -->
<g id="node1" class="node">
<title>wpfile</title>
<polygon fill="#fbf0c4" stroke="black" points="95.5,-181.25 0,-181.25 0,-145.25 101.5,-145.25 101.5,-175.25 95.5,-181.25"/>
<polyline fill="none" stroke="black" points="95.5,-181.25 95.5,-175.25"/>
<polyline fill="none" stroke="black" points="101.5,-175.25 95.5,-175.25"/>
<text xml:space="preserve" text-anchor="middle" x="50.75" y="-166.3" font-family="Helvetica,sans-Serif" font-size="11.00">.waypoints file</text>
<text xml:space="preserve" text-anchor="middle" x="50.75" y="-152.8" font-family="Helvetica,sans-Serif" font-size="11.00">(QGC WPL 110)</text>
</g>
<!-- wp -->
<g id="node2" class="node">
<title>wp</title>
<path fill="#eaf1fb" stroke="black" d="M327.12,-187.5C327.12,-187.5 208.38,-187.5 208.38,-187.5 202.38,-187.5 196.38,-181.5 196.38,-175.5 196.38,-175.5 196.38,-151 196.38,-151 196.38,-145 202.38,-139 208.38,-139 208.38,-139 327.12,-139 327.12,-139 333.12,-139 339.12,-145 339.12,-151 339.12,-151 339.12,-175.5 339.12,-175.5 339.12,-181.5 333.12,-187.5 327.12,-187.5"/>
<text xml:space="preserve" text-anchor="middle" x="267.75" y="-173.05" font-family="Helvetica,sans-Serif" font-size="11.00">waypoint.py</text>
<text xml:space="preserve" text-anchor="middle" x="267.75" y="-159.55" font-family="Helvetica,sans-Serif" font-size="11.00">parse → [Waypoint]</text>
<text xml:space="preserve" text-anchor="middle" x="267.75" y="-146.05" font-family="Helvetica,sans-Serif" font-size="11.00">(schema / MarkerType)</text>
</g>
<!-- wpfile&#45;&gt;wp -->
<g id="edge4" class="edge">
<title>wpfile&#45;&gt;wp</title>
<path fill="none" stroke="black" d="M101.89,-163.25C126.53,-163.25 156.87,-163.25 184.77,-163.25"/>
<polygon fill="black" stroke="black" points="184.63,-166.75 194.63,-163.25 184.63,-159.75 184.63,-166.75"/>
<text xml:space="preserve" text-anchor="middle" x="143.88" y="-166.5" font-family="Helvetica,sans-Serif" font-size="10.00">stdin path</text>
</g>
<!-- nav -->
<g id="node3" class="node">
<title>nav</title>
<path fill="#e3d7f4" stroke="black" d="M678.75,-179.5C678.75,-179.5 508.25,-179.5 508.25,-179.5 502.25,-179.5 496.25,-173.5 496.25,-167.5 496.25,-167.5 496.25,-143 496.25,-143 496.25,-137 502.25,-131 508.25,-131 508.25,-131 678.75,-131 678.75,-131 684.75,-131 690.75,-137 690.75,-143 690.75,-143 690.75,-167.5 690.75,-167.5 690.75,-173.5 684.75,-179.5 678.75,-179.5"/>
<text xml:space="preserve" text-anchor="middle" x="593.5" y="-165.05" font-family="Helvetica,sans-Serif" font-size="11.00">logic.py</text>
<text xml:space="preserve" text-anchor="middle" x="593.5" y="-151.55" font-family="Helvetica,sans-Serif" font-size="11.00">DroneNavigator</text>
<text xml:space="preserve" text-anchor="middle" x="593.5" y="-138.05" font-family="Helvetica,sans-Serif" font-size="11.00">(policy • sequencing • dispatch)</text>
</g>
<!-- wp&#45;&gt;nav -->
<g id="edge1" class="edge">
<title>wp&#45;&gt;nav</title>
<path fill="none" stroke="black" d="M339.4,-161.5C381.86,-160.46 436.75,-159.1 484.55,-157.92"/>
<polygon fill="black" stroke="black" points="484.48,-161.42 494.39,-157.67 484.31,-154.42 484.48,-161.42"/>
<text xml:space="preserve" text-anchor="middle" x="422.75" y="-163.91" font-family="Helvetica,sans-Serif" font-size="10.00">[Waypoint]</text>
</g>
<!-- drn -->
<g id="node4" class="node">
<title>drn</title>
<path fill="#d7ecf7" stroke="black" d="M952,-234.5C952,-234.5 838.5,-234.5 838.5,-234.5 832.5,-234.5 826.5,-228.5 826.5,-222.5 826.5,-222.5 826.5,-198 826.5,-198 826.5,-192 832.5,-186 838.5,-186 838.5,-186 952,-186 952,-186 958,-186 964,-192 964,-198 964,-198 964,-222.5 964,-222.5 964,-228.5 958,-234.5 952,-234.5"/>
<text xml:space="preserve" text-anchor="middle" x="895.25" y="-220.05" font-family="Helvetica,sans-Serif" font-size="11.00">drone.py</text>
<text xml:space="preserve" text-anchor="middle" x="895.25" y="-206.55" font-family="Helvetica,sans-Serif" font-size="11.00">Drone</text>
<text xml:space="preserve" text-anchor="middle" x="895.25" y="-193.05" font-family="Helvetica,sans-Serif" font-size="11.00">(MAVLink abstraction)</text>
</g>
<!-- nav&#45;&gt;drn -->
<g id="edge2" class="edge">
<title>nav&#45;&gt;drn</title>
<path fill="none" stroke="black" d="M691.2,-139.65C728.61,-137 771.29,-138.24 808.5,-150 827.03,-155.86 845.03,-167.32 859.71,-178.69"/>
<polygon fill="black" stroke="black" points="857.24,-181.19 867.22,-184.75 861.64,-175.75 857.24,-181.19"/>
<text xml:space="preserve" text-anchor="middle" x="758.62" y="-178.75" font-family="Helvetica,sans-Serif" font-size="10.00">commands</text>
<text xml:space="preserve" text-anchor="middle" x="758.62" y="-166" font-family="Helvetica,sans-Serif" font-size="10.00">(goto, takeoff,</text>
<text xml:space="preserve" text-anchor="middle" x="758.62" y="-153.25" font-family="Helvetica,sans-Serif" font-size="10.00">orbit, ...)</text>
</g>
<!-- nav&#45;&gt;drn -->
<g id="edge12" class="edge">
<title>nav&#45;&gt;drn</title>
<path fill="none" stroke="#27ae60" d="M673.68,-179.92C685.37,-183.04 697.32,-185.94 708.75,-188.25 743.3,-195.24 781.95,-200.26 814.99,-203.72"/>
<polygon fill="#27ae60" stroke="#27ae60" points="814.62,-207.2 824.92,-204.73 815.32,-200.24 814.62,-207.2"/>
<text xml:space="preserve" text-anchor="middle" x="758.62" y="-205.83" font-family="Helvetica,sans-Serif" font-size="10.00">move_for_duration()</text>
</g>
<!-- ctl -->
<g id="node9" class="node">
<title>ctl</title>
<path fill="#e8e8e8" stroke="black" d="M323.38,-115.5C323.38,-115.5 212.12,-115.5 212.12,-115.5 206.12,-115.5 200.12,-109.5 200.12,-103.5 200.12,-103.5 200.12,-79 200.12,-79 200.12,-73 206.12,-67 212.12,-67 212.12,-67 323.38,-67 323.38,-67 329.38,-67 335.38,-73 335.38,-79 335.38,-79 335.38,-103.5 335.38,-103.5 335.38,-109.5 329.38,-115.5 323.38,-115.5"/>
<text xml:space="preserve" text-anchor="middle" x="267.75" y="-101.05" font-family="Helvetica,sans-Serif" font-size="11.00">Control</text>
<text xml:space="preserve" text-anchor="middle" x="267.75" y="-87.55" font-family="Helvetica,sans-Serif" font-size="11.00">anchor_command()</text>
<text xml:space="preserve" text-anchor="middle" x="267.75" y="-74.05" font-family="Helvetica,sans-Serif" font-size="11.00">(direction + duration)</text>
</g>
<!-- nav&#45;&gt;ctl -->
<g id="edge10" class="edge">
<title>nav&#45;&gt;ctl</title>
<path fill="none" stroke="#27ae60" d="M496.03,-136.18C448.45,-126.77 391.8,-115.57 346.96,-106.71"/>
<polygon fill="#27ae60" stroke="#27ae60" points="347.8,-103.31 337.32,-104.8 346.45,-110.18 347.8,-103.31"/>
<text xml:space="preserve" text-anchor="middle" x="422.75" y="-134.11" font-family="Helvetica,sans-Serif" font-size="10.00">detection</text>
</g>
<!-- drn&#45;&gt;nav -->
<g id="edge3" class="edge">
<title>drn&#45;&gt;nav</title>
<path fill="none" stroke="black" stroke-dasharray="5,2" d="M826.18,-226.43C790.62,-232.14 746.71,-234.82 708.75,-224.25 681.84,-216.76 654.95,-201.02 634.01,-186.47"/>
<polygon fill="black" stroke="black" points="636.24,-183.75 626.07,-180.78 632.16,-189.45 636.24,-183.75"/>
<text xml:space="preserve" text-anchor="middle" x="758.62" y="-247.44" font-family="Helvetica,sans-Serif" font-size="10.00">telemetry</text>
<text xml:space="preserve" text-anchor="middle" x="758.62" y="-234.69" font-family="Helvetica,sans-Serif" font-size="10.00">(position, fix)</text>
</g>
<!-- mav -->
<g id="node5" class="node">
<title>mav</title>
<polygon fill="#f4dcdc" stroke="black" points="1144.25,-228.25 1072,-228.25 1072,-224.25 1068,-224.25 1068,-220.25 1072,-220.25 1072,-200.25 1068,-200.25 1068,-196.25 1072,-196.25 1072,-192.25 1144.25,-192.25 1144.25,-228.25"/>
<polyline fill="none" stroke="black" points="1072,-224.25 1076,-224.25 1076,-220.25 1072,-220.25"/>
<polyline fill="none" stroke="black" points="1072,-200.25 1076,-200.25 1076,-196.25 1072,-196.25"/>
<text xml:space="preserve" text-anchor="middle" x="1108.12" y="-213.3" font-family="Helvetica,sans-Serif" font-size="11.00">pymavlink</text>
<text xml:space="preserve" text-anchor="middle" x="1108.12" y="-199.8" font-family="Helvetica,sans-Serif" font-size="11.00">(mavutil)</text>
</g>
<!-- drn&#45;&gt;mav -->
<g id="edge5" class="edge">
<title>drn&#45;&gt;mav</title>
<path fill="none" stroke="black" d="M964.42,-210.25C995.83,-210.25 1032.31,-210.25 1060.52,-210.25"/>
<polygon fill="black" stroke="black" points="1060.16,-213.75 1070.16,-210.25 1060.16,-206.75 1060.16,-213.75"/>
<text xml:space="preserve" text-anchor="middle" x="1018" y="-213.5" font-family="Helvetica,sans-Serif" font-size="10.00">MAVLink msgs</text>
</g>
<!-- mav&#45;&gt;drn -->
<g id="edge6" class="edge">
<title>mav&#45;&gt;drn</title>
<path fill="none" stroke="black" stroke-dasharray="5,2" d="M1071.76,-197.46C1065.9,-195.82 1059.83,-194.4 1054,-193.5 1028.62,-189.59 1000.81,-190.75 975.7,-193.81"/>
<polygon fill="black" stroke="black" points="975.32,-190.33 965.87,-195.13 976.25,-197.27 975.32,-190.33"/>
<text xml:space="preserve" text-anchor="middle" x="1018" y="-196.75" font-family="Helvetica,sans-Serif" font-size="10.00">telemetry</text>
</g>
<!-- fc -->
<g id="node6" class="node">
<title>fc</title>
<polygon fill="#f4c7c3" stroke="black" points="1338,-228.25 1235.25,-228.25 1231.25,-224.25 1231.25,-192.25 1334,-192.25 1338,-196.25 1338,-228.25"/>
<polyline fill="none" stroke="black" points="1334,-224.25 1231.25,-224.25"/>
<polyline fill="none" stroke="black" points="1334,-224.25 1334,-192.25"/>
<polyline fill="none" stroke="black" points="1334,-224.25 1338,-228.25"/>
<text xml:space="preserve" text-anchor="middle" x="1284.62" y="-213.3" font-family="Helvetica,sans-Serif" font-size="11.00">Autopilot</text>
<text xml:space="preserve" text-anchor="middle" x="1284.62" y="-199.8" font-family="Helvetica,sans-Serif" font-size="11.00">(ArduPilot / PX4)</text>
</g>
<!-- mav&#45;&gt;fc -->
<g id="edge7" class="edge">
<title>mav&#45;&gt;fc</title>
<path fill="none" stroke="black" d="M1144.44,-210.25C1165.94,-210.25 1194.06,-210.25 1219.4,-210.25"/>
<polygon fill="black" stroke="black" points="1219.29,-213.75 1229.29,-210.25 1219.29,-206.75 1219.29,-213.75"/>
<text xml:space="preserve" text-anchor="middle" x="1187.75" y="-213.5" font-family="Helvetica,sans-Serif" font-size="10.00">UDP/serial</text>
</g>
<!-- cam -->
<g id="node7" class="node">
<title>cam</title>
<polygon fill="#fbf0c4" stroke="black" points="76.38,-42.25 19.12,-42.25 19.12,-6.25 82.38,-6.25 82.38,-36.25 76.38,-42.25"/>
<polyline fill="none" stroke="black" points="76.38,-42.25 76.38,-36.25"/>
<polyline fill="none" stroke="black" points="82.38,-36.25 76.38,-36.25"/>
<text xml:space="preserve" text-anchor="middle" x="50.75" y="-27.3" font-family="Helvetica,sans-Serif" font-size="11.00">Camera</text>
<text xml:space="preserve" text-anchor="middle" x="50.75" y="-13.8" font-family="Helvetica,sans-Serif" font-size="11.00">(frames)</text>
</g>
<!-- vis -->
<g id="node8" class="node">
<title>vis</title>
<path fill="#e8e8e8" stroke="black" d="M337.25,-48.5C337.25,-48.5 198.25,-48.5 198.25,-48.5 192.25,-48.5 186.25,-42.5 186.25,-36.5 186.25,-36.5 186.25,-12 186.25,-12 186.25,-6 192.25,0 198.25,0 198.25,0 337.25,0 337.25,0 343.25,0 349.25,-6 349.25,-12 349.25,-12 349.25,-36.5 349.25,-36.5 349.25,-42.5 343.25,-48.5 337.25,-48.5"/>
<text xml:space="preserve" text-anchor="middle" x="267.75" y="-34.05" font-family="Helvetica,sans-Serif" font-size="11.00">Vision</text>
<text xml:space="preserve" text-anchor="middle" x="267.75" y="-20.55" font-family="Helvetica,sans-Serif" font-size="11.00">run_detection()</text>
<text xml:space="preserve" text-anchor="middle" x="267.75" y="-7.05" font-family="Helvetica,sans-Serif" font-size="11.00">(detect physical waypoint)</text>
</g>
<!-- cam&#45;&gt;vis -->
<g id="edge8" class="edge">
<title>cam&#45;&gt;vis</title>
<path fill="none" stroke="black" d="M82.55,-24.25C106.76,-24.25 141.78,-24.25 174.8,-24.25"/>
<polygon fill="black" stroke="black" points="174.39,-27.75 184.39,-24.25 174.39,-20.75 174.39,-27.75"/>
<text xml:space="preserve" text-anchor="middle" x="143.88" y="-27.5" font-family="Helvetica,sans-Serif" font-size="10.00">frame</text>
</g>
<!-- vis&#45;&gt;nav -->
<g id="edge9" class="edge">
<title>vis&#45;&gt;nav</title>
<path fill="none" stroke="#27ae60" stroke-dasharray="5,2" d="M349.5,-32.27C389.57,-38.38 437.9,-49.03 478.25,-67.5 508.23,-81.22 537.63,-104.08 559.1,-123.03"/>
<polygon fill="#27ae60" stroke="#27ae60" points="556.61,-125.5 566.38,-129.59 561.29,-120.3 556.61,-125.5"/>
<text xml:space="preserve" text-anchor="middle" x="422.75" y="-70.75" font-family="Helvetica,sans-Serif" font-size="10.00">detection</text>
</g>
<!-- ctl&#45;&gt;nav -->
<g id="edge11" class="edge">
<title>ctl&#45;&gt;nav</title>
<path fill="none" stroke="#27ae60" stroke-dasharray="5,2" d="M335.85,-84.88C377.49,-82.81 431.74,-83.57 478.25,-95.5 501.9,-101.57 526.14,-113.31 546.17,-124.79"/>
<polygon fill="#27ae60" stroke="#27ae60" points="544.24,-127.72 554.63,-129.79 547.8,-121.69 544.24,-127.72"/>
<text xml:space="preserve" text-anchor="middle" x="422.75" y="-98.75" font-family="Helvetica,sans-Serif" font-size="10.00">dir + speed + duration</text>
</g>
</g>
</svg>
