<svg xmlns="http://www.w3.org/2000/svg" xmlns:xlink="http://www.w3.org/1999/xlink" contentStyleType="text/css" data-diagram-type="CLASS" height="1435px" preserveAspectRatio="none" style="width:2543px;height:1435px;background:#FFFFFF;" version="1.1" viewBox="0 0 2543 1435" width="2543px" zoomAndPan="magnify"><?plantuml $version$?><defs/><g><g class="title" data-source-line="2"><text fill="#000000" font-family="sans-serif" font-size="14" font-weight="700" lengthAdjust="spacing" textLength="265.285" x="1135.3903" y="24.9659">Mission Module &#8212; UML Class Diagram</text></g><!--cluster waypoint.py--><g class="cluster" data-qualified-name="waypoint.py" data-source-line="14" id="ent0001"><rect fill="none" height="700.23" rx="2.5" ry="2.5" style="stroke:#000000;stroke-width:1.5;" width="286" x="1696.12" y="595.9479"/><text fill="#000000" font-family="sans-serif" font-size="14" font-weight="700" lengthAdjust="spacing" textLength="86.0997" x="1796.0702" y="612.9139">waypoint.py</text></g><!--cluster logic.py--><g class="cluster" data-qualified-name="logic.py" data-source-line="41" id="ent0004"><rect fill="none" height="681.17" rx="2.5" ry="2.5" style="stroke:#000000;stroke-width:1.5;" width="1365" x="307.12" y="131.1879"/><text fill="#000000" font-family="sans-serif" font-size="14" font-weight="700" lengthAdjust="spacing" textLength="53.9558" x="962.6421" y="148.1539">logic.py</text></g><!--cluster drone.py--><g class="cluster" data-qualified-name="drone.py" data-source-line="80" id="ent0013"><rect fill="none" height="777.67" rx="2.5" ry="2.5" style="stroke:#000000;stroke-width:1.5;" width="354" x="2006.12" y="448.9379"/><text fill="#000000" font-family="sans-serif" font-size="14" font-weight="700" lengthAdjust="spacing" textLength="62.0898" x="2152.0751" y="465.9039">drone.py</text></g><!--class MarkerType--><g class="entity" data-qualified-name="waypoint.py.MarkerType" data-source-line="15" id="ent0002"><rect fill="#F7FAFF" height="200.5433" rx="2.5" ry="2.5" style="stroke:#3B6EA5;stroke-width:0.5;" width="184.6893" x="1746.78" y="1079.6379"/><ellipse cx="1795.4158" cy="1095.6379" fill="#EB937F" rx="11" ry="11" style="stroke:#181818;stroke-width:1;"/><path d="M1791.7752,1102.1379 L1791.7752,1089.9973 L1799.4314,1089.9973 L1799.4314,1092.1223 L1794.1502,1092.1223 L1794.1502,1094.7785 L1799.1658,1094.7785 L1799.1658,1096.9035 L1794.1502,1096.9035 L1794.1502,1100.0129 L1799.4314,1100.0129 L1799.4314,1102.1379 L1791.7752,1102.1379 Z " fill="#000000"/><text fill="#000000" font-family="sans-serif" font-size="14" lengthAdjust="spacing" textLength="78.9177" x="1815.9158" y="1101.0699">MarkerType</text><line style="stroke:#3B6EA5;stroke-width:0.5;" x1="1747.78" x2="1930.4693" y1="1111.6379" y2="1111.6379"/><text fill="#000000" font-family="sans-serif" font-size="14" lengthAdjust="spacing" textLength="103.7676" x="1752.78" y="1130.6039">WAYPOINT = 16</text><text fill="#000000" font-family="sans-serif" font-size="14" lengthAdjust="spacing" textLength="130.4655" x="1752.78" y="1149.6718">LOITER_UNLIM = 17</text><text fill="#000000" font-family="sans-serif" font-size="14" lengthAdjust="spacing" textLength="129.8635" x="1752.78" y="1168.7397">LOITER_TURNS = 18</text><text fill="#000000" font-family="sans-serif" font-size="14" lengthAdjust="spacing" textLength="117.8235" x="1752.78" y="1187.8076">LOITER_TIME = 19</text><text fill="#000000" font-family="sans-serif" font-size="14" lengthAdjust="spacing" textLength="172.6893" x="1752.78" y="1206.8755">RETURN_TO_LAUNCH = 20</text><text fill="#000000" font-family="sans-serif" font-size="14" lengthAdjust="spacing" textLength="68.4457" x="1752.78" y="1225.9434">LAND = 21</text><text fill="#000000" font-family="sans-serif" font-size="14" lengthAdjust="spacing" textLength="89.9496" x="1752.78" y="1245.0114">TAKEOFF = 22</text><text fill="#000000" font-family="sans-serif" font-size="14" lengthAdjust="spacing" textLength="144.2554" x="1752.78" y="1264.0793">CHANGE_SPEED = 178</text><line style="stroke:#3B6EA5;stroke-width:0.5;" x1="1747.78" x2="1930.4693" y1="1272.1813" y2="1272.1813"/></g><!--class Waypoint--><g class="entity" data-qualified-name="waypoint.py.Waypoint" data-source-line="26" id="ent0003"><rect fill="#F7FAFF" height="238.6792" rx="2.5" ry="2.5" style="stroke:#3B6EA5;stroke-width:0.5;" width="254.801" x="1711.72" y="633.9479"/><ellipse cx="1803.6646" cy="649.9479" fill="#ADD1B2" rx="11" ry="11" style="stroke:#181818;stroke-width:1;"/><path d="M1803.1334,656.8698 Q1801.3834,656.8698 1800.2428,656.1354 Q1799.1178,655.3854 1798.5553,654.0417 Q1798.0084,652.6823 1798.0084,650.8854 Q1798.0084,648.8542 1798.6646,647.401 Q1799.3209,645.9479 1800.6021,645.1667 Q1801.8834,644.3854 1803.7584,644.3854 Q1804.649,644.3854 1805.3209,644.5729 Q1805.9928,644.7448 1806.6803,645.0885 L1805.8678,647.1042 Q1805.2428,646.7917 1804.6959,646.6667 Q1804.1646,646.5417 1803.6803,646.5417 Q1802.5084,646.5417 1801.8053,647.0729 Q1801.1021,647.6042 1800.8053,648.5573 Q1800.5084,649.5104 1800.5084,650.776 Q1800.5084,652.7917 1801.2271,653.7604 Q1801.9459,654.7135 1803.5396,654.7135 Q1804.1334,654.7135 1804.7584,654.5573 Q1805.3834,654.401 1806.2115,654.026 L1806.2115,656.2448 Q1805.4771,656.5573 1804.6803,656.7135 Q1803.899,656.8698 1803.1334,656.8698 Z " fill="#000000"/><text fill="#000000" font-family="sans-serif" font-size="14" lengthAdjust="spacing" textLength="62.4118" x="1824.1646" y="655.3799">Waypoint</text><line style="stroke:#3B6EA5;stroke-width:0.5;" x1="1712.72" x2="1965.521" y1="665.9479" y2="665.9479"/><text fill="#000000" font-family="sans-serif" font-size="14" lengthAdjust="spacing" textLength="115.1915" x="1717.72" y="684.9139">+waypoint_id : int</text><text fill="#000000" font-family="sans-serif" font-size="14" lengthAdjust="spacing" textLength="113.2736" x="1717.72" y="703.9818">+is_current : bool</text><text fill="#000000" font-family="sans-serif" font-size="14" lengthAdjust="spacing" textLength="75.7957" x="1717.72" y="723.0497">+frame : int</text><text fill="#000000" font-family="sans-serif" font-size="14" lengthAdjust="spacing" textLength="180.7533" x="1717.72" y="742.1176">+marker_type : MarkerType</text><text fill="#000000" font-family="sans-serif" font-size="14" lengthAdjust="spacing" textLength="133.7415" x="1717.72" y="761.1855">+params : list&lt;float&gt;</text><text fill="#000000" font-family="sans-serif" font-size="14" lengthAdjust="spacing" textLength="65.3658" x="1717.72" y="780.2534">+lat : float</text><text fill="#000000" font-family="sans-serif" font-size="14" lengthAdjust="spacing" textLength="69.5797" x="1717.72" y="799.3214">+lon : float</text><text fill="#000000" font-family="sans-serif" font-size="14" lengthAdjust="spacing" textLength="65.3658" x="1717.72" y="818.3893">+alt : float</text><line style="stroke:#3B6EA5;stroke-width:1;" x1="1712.72" x2="1965.521" y1="826.4913" y2="826.4913"/><text fill="#000000" font-family="sans-serif" font-size="14" lengthAdjust="spacing" textLength="189.2933" x="1717.72" y="845.4572">+hold_time : float &#171;property&#187;</text><text fill="#000000" font-family="sans-serif" font-size="14" lengthAdjust="spacing" text-decoration="underline" textLength="242.801" x="1717.72" y="864.5251">+generate_from(file) : list&lt;Waypoint&gt;</text></g><!--class DroneNavigator--><g class="entity" data-qualified-name="logic.py.DroneNavigator" data-source-line="42" id="ent0005"><rect fill="#F7FAFF" height="257.7471" rx="2.5" ry="2.5" style="stroke:#3B6EA5;stroke-width:0.5;" width="237.8191" x="1223.21" y="169.1879"/><ellipse cx="1284.8658" cy="185.1879" fill="#ADD1B2" rx="11" ry="11" style="stroke:#181818;stroke-width:1;"/><path d="M1284.3345,192.1098 Q1282.5845,192.1098 1281.4439,191.3754 Q1280.3189,190.6254 1279.7564,189.2817 Q1279.2095,187.9223 1279.2095,186.1254 Q1279.2095,184.0942 1279.8658,182.641 Q1280.522,181.1879 1281.8033,180.4067 Q1283.0845,179.6254 1284.9595,179.6254 Q1285.8501,179.6254 1286.522,179.8129 Q1287.1939,179.9848 1287.8814,180.3285 L1287.0689,182.3442 Q1286.4439,182.0317 1285.897,181.9067 Q1285.3658,181.7817 1284.8814,181.7817 Q1283.7095,181.7817 1283.0064,182.3129 Q1282.3033,182.8442 1282.0064,183.7973 Q1281.7095,184.7504 1281.7095,186.016 Q1281.7095,188.0317 1282.4283,189.0004 Q1283.147,189.9535 1284.7408,189.9535 Q1285.3345,189.9535 1285.9595,189.7973 Q1286.5845,189.641 1287.4126,189.266 L1287.4126,191.4848 Q1286.6783,191.7973 1285.8814,191.9535 Q1285.1001,192.1098 1284.3345,192.1098 Z " fill="#000000"/><text fill="#000000" font-family="sans-serif" font-size="14" lengthAdjust="spacing" textLength="106.0076" x="1305.3658" y="190.6199">DroneNavigator</text><line style="stroke:#3B6EA5;stroke-width:0.5;" x1="1224.21" x2="1460.0291" y1="201.1879" y2="201.1879"/><text fill="#000000" font-family="sans-serif" font-size="14" lengthAdjust="spacing" textLength="102.1856" x="1229.21" y="220.1539">-_drone : Drone</text><text fill="#000000" font-family="sans-serif" font-size="14" lengthAdjust="spacing" textLength="221.8571" x="1229.21" y="239.2218">-_waypoints_data : list&lt;Waypoint&gt;</text><text fill="#000000" font-family="sans-serif" font-size="14" lengthAdjust="spacing" textLength="128.3515" x="1229.21" y="258.2897">-_camera : Camera?</text><text fill="#000000" font-family="sans-serif" font-size="14" lengthAdjust="spacing" textLength="162.5394" x="1229.21" y="277.3576">-_vision : VisionDetector?</text><text fill="#000000" font-family="sans-serif" font-size="14" lengthAdjust="spacing" textLength="187.9913" x="1229.21" y="296.4255">-_control : AnchorController?</text><line style="stroke:#3B6EA5;stroke-width:1;" x1="1224.21" x2="1460.0291" y1="304.5275" y2="304.5275"/><text fill="#000000" font-family="sans-serif" font-size="14" lengthAdjust="spacing" textLength="49.6158" x="1229.21" y="323.4934">+main()</text><text fill="#000000" font-family="sans-serif" font-size="14" lengthAdjust="spacing" textLength="152.6274" x="1229.21" y="342.5614">-_consume_waypoints()</text><text fill="#000000" font-family="sans-serif" font-size="14" lengthAdjust="spacing" textLength="165.5353" x="1229.21" y="361.6293">-_consume_waypoint(wp)</text><text fill="#000000" font-family="sans-serif" font-size="14" lengthAdjust="spacing" textLength="74.0457" x="1229.21" y="380.6972">-_fly_to(wp)</text><text fill="#000000" font-family="sans-serif" font-size="14" lengthAdjust="spacing" textLength="134.3155" x="1229.21" y="399.7651">-_loiter(wp, seconds)</text><text fill="#000000" font-family="sans-serif" font-size="14" lengthAdjust="spacing" textLength="225.8191" x="1229.21" y="418.833">-_anchor_to_waypoint(wp)  &#171;hook&#187;</text></g><!--class EndExecution--><g class="entity" data-qualified-name="logic.py.EndExecution" data-source-line="57" id="ent0006"><rect fill="#F7FAFF" height="86.1358" rx="2.5" ry="2.5" style="stroke:#3B6EA5;stroke-width:0.5;" width="121.2916" x="1534.48" y="710.2179"/><ellipse cx="1549.48" cy="726.2179" fill="#D94321" rx="11" ry="11" style="stroke:#181818;stroke-width:1;"/><path d="M1544.8238,732.7179 L1548.4644,726.4679 L1545.0581,720.5773 L1547.5738,720.5773 L1549.5738,724.4054 L1551.5581,720.5773 L1554.105,720.5773 L1550.6988,726.4523 L1554.3394,732.7179 L1551.7456,732.7179 L1549.5581,728.4992 L1547.3394,732.7179 L1544.8238,732.7179 Z " fill="#000000"/><text fill="#000000" font-family="sans-serif" font-size="14" lengthAdjust="spacing" textLength="89.2916" x="1563.48" y="731.6499">EndExecution</text><line style="stroke:#3B6EA5;stroke-width:0.5;" x1="1535.48" x2="1654.7716" y1="742.2179" y2="742.2179"/><text fill="#000000" font-family="sans-serif" font-size="14" lengthAdjust="spacing" textLength="100.9536" x="1540.48" y="761.1839">-_exit_code : int</text><text fill="#000000" font-family="sans-serif" font-size="14" lengthAdjust="spacing" textLength="98.0556" x="1540.48" y="780.2518">-_message : str</text><line style="stroke:#3B6EA5;stroke-width:0.5;" x1="1535.48" x2="1654.7716" y1="788.3538" y2="788.3538"/></g><!--class Camera--><g class="entity" data-qualified-name="logic.py.Camera" data-source-line="62" id="ent0007"><rect fill="#F7FAFF" height="80.4799" rx="2.5" ry="2.5" style="stroke:#3B6EA5;stroke-width:0.5;" width="152.1674" x="323.04" y="713.0479"/><ellipse cx="368.9675" cy="735.7539" fill="#B4A7E5" rx="11" ry="11" style="stroke:#181818;stroke-width:1;"/><path d="M364.9988,742.2539 L364.9988,740.5508 L367.3582,740.2852 L367.3582,732.0821 L364.9988,731.8164 L364.9988,730.1133 L372.1394,730.1133 L372.1394,731.8164 L369.7175,732.0821 L369.7175,740.2852 L372.1394,740.5508 L372.1394,742.2539 L364.9988,742.2539 Z " fill="#000000"/><text fill="#000000" font-family="sans-serif" font-size="12" font-style="italic" lengthAdjust="spacing" textLength="55.8124" x="387.4675" y="730.876">&#171;Protocol&#187;</text><text fill="#000000" font-family="sans-serif" font-size="14" font-style="italic" lengthAdjust="spacing" textLength="48.9298" x="390.9088" y="749.358">Camera</text><line style="stroke:#3B6EA5;stroke-width:0.5;" x1="324.04" x2="474.2074" y1="758.4599" y2="758.4599"/><line style="stroke:#3B6EA5;stroke-width:0.5;" x1="324.04" x2="474.2074" y1="766.4599" y2="766.4599"/><text fill="#000000" font-family="sans-serif" font-size="14" lengthAdjust="spacing" textLength="140.1674" x="329.04" y="785.4259">+get_frame() : frame?</text></g><!--class VisionDetector--><g class="entity" data-qualified-name="logic.py.VisionDetector" data-source-line="65" id="ent0008"><rect fill="#F7FAFF" height="80.4799" rx="2.5" ry="2.5" style="stroke:#3B6EA5;stroke-width:0.5;" width="200.2153" x="510.01" y="713.0479"/><ellipse cx="561.1728" cy="735.7539" fill="#B4A7E5" rx="11" ry="11" style="stroke:#181818;stroke-width:1;"/><path d="M557.204,742.2539 L557.204,740.5508 L559.5634,740.2852 L559.5634,732.0821 L557.204,731.8164 L557.204,730.1133 L564.3447,730.1133 L564.3447,731.8164 L561.9228,732.0821 L561.9228,740.2852 L564.3447,740.5508 L564.3447,742.2539 L557.204,742.2539 Z " fill="#000000"/><text fill="#000000" font-family="sans-serif" font-size="12" font-style="italic" lengthAdjust="spacing" textLength="55.8124" x="598.4614" y="730.876">&#171;Protocol&#187;</text><text fill="#000000" font-family="sans-serif" font-size="14" font-style="italic" lengthAdjust="spacing" textLength="89.3897" x="581.6728" y="749.358">VisionDetector</text><line style="stroke:#3B6EA5;stroke-width:0.5;" x1="511.01" x2="709.2253" y1="758.4599" y2="758.4599"/><line style="stroke:#3B6EA5;stroke-width:0.5;" x1="511.01" x2="709.2253" y1="766.4599" y2="766.4599"/><text fill="#000000" font-family="sans-serif" font-size="14" lengthAdjust="spacing" textLength="188.2153" x="516.01" y="785.4259">+run_detection(frame) : dict?</text></g><!--class AnchorController--><g class="entity" data-qualified-name="logic.py.AnchorController" data-source-line="68" id="ent0009"><rect fill="#F7FAFF" height="80.4799" rx="2.5" ry="2.5" style="stroke:#3B6EA5;stroke-width:0.5;" width="404.3066" x="744.97" y="713.0479"/><ellipse cx="889.8905" cy="735.7539" fill="#B4A7E5" rx="11" ry="11" style="stroke:#181818;stroke-width:1;"/><path d="M885.9217,742.2539 L885.9217,740.5508 L888.2811,740.2852 L888.2811,732.0821 L885.9217,731.8164 L885.9217,730.1133 L893.0624,730.1133 L893.0624,731.8164 L890.6405,732.0821 L890.6405,740.2852 L893.0624,740.5508 L893.0624,742.2539 L885.9217,742.2539 Z " fill="#000000"/><text fill="#000000" font-family="sans-serif" font-size="12" font-style="italic" lengthAdjust="spacing" textLength="55.8124" x="935.4671" y="730.876">&#171;Protocol&#187;</text><text fill="#000000" font-family="sans-serif" font-size="14" font-style="italic" lengthAdjust="spacing" textLength="105.9656" x="910.3905" y="749.358">AnchorController</text><line style="stroke:#3B6EA5;stroke-width:0.5;" x1="745.97" x2="1148.2766" y1="758.4599" y2="758.4599"/><line style="stroke:#3B6EA5;stroke-width:0.5;" x1="745.97" x2="1148.2766" y1="766.4599" y2="766.4599"/><text fill="#000000" font-family="sans-serif" font-size="14" lengthAdjust="spacing" textLength="392.3066" x="750.97" y="785.4259">+anchor_command(detection) : (direction, speed, duration)?</text></g><g class="entity" data-qualified-name="logic.py.GMN10" data-source-line="73" id="ent0011"><path d="M1184.51,712.8779 L1184.51,793.702 A0,0 0 0 0 1184.51,793.702 L1499.7264,793.702 A0,0 0 0 0 1499.7264,793.702 L1499.7264,722.8779 L1489.7264,712.8779 L1286.67,712.8779 L1282.67,427.2979 L1278.67,712.8779 L1184.51,712.8779 A0,0 0 0 0 1184.51,712.8779" fill="#FEFFDD" style="stroke:#181818;stroke-width:0.5;"/><path d="M1489.7264,712.8779 L1489.7264,722.8779 L1499.7264,722.8779 L1489.7264,712.8779" fill="#FEFFDD" style="stroke:#181818;stroke-width:0.5;"/><text fill="#000000" font-family="sans-serif" font-size="13" lengthAdjust="spacing" textLength="151.8402" x="1190.51" y="731.7749">Mission policy constants:</text><text fill="#000000" font-family="sans-serif" font-size="13" lengthAdjust="spacing" textLength="289.3283" x="1190.51" y="749.4809">ACCEPTANCE_RADIUS_M, ARRIVAL_TIMEOUT_S,</text><text fill="#000000" font-family="sans-serif" font-size="13" lengthAdjust="spacing" textLength="257.7773" x="1190.51" y="767.187">GPS_LOCK_TIMEOUT_S, ORBIT_SPEED_MS,</text><text fill="#000000" font-family="sans-serif" font-size="13" lengthAdjust="spacing" textLength="294.2164" x="1190.51" y="784.893">ALTITUDE_TOLERANCE_M, TAKEOFF_TIMEOUT_S</text></g><!--class Drone--><g class="entity" data-qualified-name="drone.py.Drone" data-source-line="81" id="ent0014"><rect fill="#F7FAFF" height="532.6979" rx="2.5" ry="2.5" style="stroke:#3B6EA5;stroke-width:0.5;" width="321.7068" x="2022.27" y="486.9379"/><ellipse cx="2158.3635" cy="502.9379" fill="#ADD1B2" rx="11" ry="11" style="stroke:#181818;stroke-width:1;"/><path d="M2157.8323,509.8598 Q2156.0823,509.8598 2154.9416,509.1254 Q2153.8166,508.3754 2153.2541,507.0317 Q2152.7073,505.6723 2152.7073,503.8754 Q2152.7073,501.8442 2153.3635,500.391 Q2154.0198,498.9379 2155.301,498.1567 Q2156.5823,497.3754 2158.4573,497.3754 Q2159.3479,497.3754 2160.0198,497.5629 Q2160.6916,497.7348 2161.3791,498.0785 L2160.5666,500.0942 Q2159.9416,499.7817 2159.3948,499.6567 Q2158.8635,499.5317 2158.3791,499.5317 Q2157.2073,499.5317 2156.5041,500.0629 Q2155.801,500.5942 2155.5041,501.5473 Q2155.2073,502.5004 2155.2073,503.766 Q2155.2073,505.7817 2155.926,506.7504 Q2156.6448,507.7035 2158.2385,507.7035 Q2158.8323,507.7035 2159.4573,507.5473 Q2160.0823,507.391 2160.9104,507.016 L2160.9104,509.2348 Q2160.176,509.5473 2159.3791,509.7035 Q2158.5979,509.8598 2157.8323,509.8598 Z " fill="#000000"/><text fill="#000000" font-family="sans-serif" font-size="14" lengthAdjust="spacing" textLength="41.0198" x="2178.8635" y="508.3699">Drone</text><line style="stroke:#3B6EA5;stroke-width:0.5;" x1="2023.27" x2="2342.9768" y1="518.9379" y2="518.9379"/><text fill="#000000" font-family="sans-serif" font-size="14" lengthAdjust="spacing" textLength="57.1058" x="2028.27" y="537.9039">-_master</text><text fill="#000000" font-family="sans-serif" font-size="14" lengthAdjust="spacing" textLength="142.7434" x="2028.27" y="556.9718">-_lat / _lon / _alt : float</text><text fill="#000000" font-family="sans-serif" font-size="14" lengthAdjust="spacing" textLength="123.1155" x="2028.27" y="576.0397">-_relative_alt : float</text><text fill="#000000" font-family="sans-serif" font-size="14" lengthAdjust="spacing" textLength="214.7172" x="2028.27" y="595.1076">-_gps_fixed / _has_position : bool</text><line style="stroke:#3B6EA5;stroke-width:1;" x1="2023.27" x2="2342.9768" y1="603.2096" y2="603.2096"/><text fill="#000000" font-family="sans-serif" font-size="14" lengthAdjust="spacing" textLength="181.2853" x="2028.27" y="622.1755">+position : tuple &#171;property&#187;</text><text fill="#000000" font-family="sans-serif" font-size="14" lengthAdjust="spacing" textLength="185.9193" x="2028.27" y="641.2434">+gps_fixed : bool &#171;property&#187;</text><text fill="#000000" font-family="sans-serif" font-size="14" lengthAdjust="spacing" textLength="129.6255" x="2028.27" y="660.3114">+master &#171;property&#187;</text><text fill="#000000" font-family="sans-serif" font-size="14" lengthAdjust="spacing" textLength="143.4014" x="2028.27" y="702.4472">+update_localization()</text><text fill="#000000" font-family="sans-serif" font-size="14" lengthAdjust="spacing" textLength="223.8731" x="2028.27" y="721.5151">+wait_for_gps_lock(timeout) : bool</text><text fill="#000000" font-family="sans-serif" font-size="14" lengthAdjust="spacing" textLength="289.9669" x="2028.27" y="740.583">+wait_for_altitude(target, tol, timeout) : bool</text><text fill="#000000" font-family="sans-serif" font-size="14" lengthAdjust="spacing" textLength="309.7068" x="2028.27" y="759.6509">+wait_for_arrival(lat, lon, radius, timeout) : bool</text><text fill="#000000" font-family="sans-serif" font-size="14" lengthAdjust="spacing" textLength="176.7353" x="2028.27" y="778.7189">+distance_to(lat, lon) : float</text><line style="stroke:#3B6EA5;stroke-width:1;stroke-dasharray:1,2;" x1="2023.27" x2="2150.0486" y1="677.9473" y2="677.9473"/><text fill="#000000" font-family="sans-serif" font-size="14" lengthAdjust="spacing" textLength="66.1497" x="2150.0486" y="682.8793">Telemetry</text><line style="stroke:#3B6EA5;stroke-width:1;stroke-dasharray:1,2;" x1="2216.1983" x2="2342.9768" y1="677.9473" y2="677.9473"/><text fill="#000000" font-family="sans-serif" font-size="14" lengthAdjust="spacing" textLength="109.6756" x="2028.27" y="820.8547">+arm() / disarm()</text><text fill="#000000" font-family="sans-serif" font-size="14" lengthAdjust="spacing" textLength="118.4115" x="2028.27" y="839.9226">+set_mode(mode)</text><text fill="#000000" font-family="sans-serif" font-size="14" lengthAdjust="spacing" textLength="115.5696" x="2028.27" y="858.9905">+goto(lat, lon, alt)</text><text fill="#000000" font-family="sans-serif" font-size="14" lengthAdjust="spacing" textLength="128.9255" x="2028.27" y="878.0584">+takeoff(alt) / land()</text><text fill="#000000" font-family="sans-serif" font-size="14" lengthAdjust="spacing" textLength="191.9393" x="2028.27" y="897.1264">+hold_position(lat?, lon?, alt?)</text><text fill="#000000" font-family="sans-serif" font-size="14" lengthAdjust="spacing" textLength="128.3235" x="2028.27" y="916.1943">+return_to_launch()</text><text fill="#000000" font-family="sans-serif" font-size="14" lengthAdjust="spacing" textLength="214.8012" x="2028.27" y="935.2622">+change_speed(speed, airspeed)</text><text fill="#000000" font-family="sans-serif" font-size="14" lengthAdjust="spacing" textLength="197.1472" x="2028.27" y="954.3301">+orbit(radius, speed, turns, ...)</text><text fill="#000000" font-family="sans-serif" font-size="14" lengthAdjust="spacing" textLength="227.5411" x="2028.27" y="973.398">+send_velocity(vx, vy, vz, yaw_rate)</text><text fill="#000000" font-family="sans-serif" font-size="14" lengthAdjust="spacing" textLength="270.353" x="2028.27" y="992.4659">+move_for_duration(dir, speed, duration)</text><text fill="#000000" font-family="sans-serif" font-size="14" lengthAdjust="spacing" textLength="307.3828" x="2028.27" y="1011.5339">+move_for_distance(dir, speed, distance) : bool</text><line style="stroke:#3B6EA5;stroke-width:1;stroke-dasharray:1,2;" x1="2023.27" x2="2145.4636" y1="796.3548" y2="796.3548"/><text fill="#000000" font-family="sans-serif" font-size="14" lengthAdjust="spacing" textLength="75.3197" x="2145.4636" y="801.2868">Commands</text><line style="stroke:#3B6EA5;stroke-width:1;stroke-dasharray:1,2;" x1="2220.7833" x2="2342.9768" y1="796.3548" y2="796.3548"/></g><!--class hdist--><g class="entity" data-qualified-name="drone.py.hdist" data-source-line="110" id="ent0015"><rect fill="#F7FAFF" height="61.412" rx="2.5" ry="2.5" style="stroke:#3B6EA5;stroke-width:0.5;" width="187.7634" x="2089.24" y="1149.1979"/><ellipse cx="2104.24" cy="1171.9039" fill="#E8A33D" rx="11" ry="11" style="stroke:#181818;stroke-width:1;"/><path d="M2100.5994,1178.4039 L2100.5994,1166.2633 L2108.2556,1166.2633 L2108.2556,1168.3883 L2102.9744,1168.3883 L2102.9744,1171.5602 L2107.99,1171.5602 L2107.99,1173.6852 L2102.9744,1173.6852 L2102.9744,1178.4039 L2100.5994,1178.4039 Z " fill="#000000"/><text fill="#000000" font-family="sans-serif" font-size="12" font-style="italic" lengthAdjust="spacing" textLength="55.3804" x="2168.4315" y="1167.026">&#171;function&#187;</text><text fill="#000000" font-family="sans-serif" font-size="14" lengthAdjust="spacing" textLength="155.7634" x="2118.24" y="1185.508">horizontal_distance_m()</text><line style="stroke:#3B6EA5;stroke-width:0.5;" x1="2090.24" x2="2276.0034" y1="1194.6099" y2="1194.6099"/><line style="stroke:#3B6EA5;stroke-width:0.5;" x1="2090.24" x2="2276.0034" y1="1202.6099" y2="1202.6099"/></g><!--class mav--><g class="entity" data-qualified-name="mav" data-source-line="113" id="ent0016"><rect fill="#F7FAFF" height="61.412" rx="2.5" ry="2.5" style="stroke:#3B6EA5;stroke-width:0.5;" width="151.8955" x="2376.17" y="1149.1979"/><ellipse cx="2391.17" cy="1171.9039" fill="#C97B7B" rx="11" ry="11" style="stroke:#181818;stroke-width:1;"/><path d="M2387.5294,1178.4039 L2387.5294,1166.2633 L2395.1856,1166.2633 L2395.1856,1168.3883 L2389.9044,1168.3883 L2389.9044,1171.0446 L2394.92,1171.0446 L2394.92,1173.1696 L2389.9044,1173.1696 L2389.9044,1176.2789 L2395.1856,1176.2789 L2395.1856,1178.4039 L2387.5294,1178.4039 Z " fill="#000000"/><text fill="#000000" font-family="sans-serif" font-size="12" font-style="italic" lengthAdjust="spacing" textLength="54.8404" x="2437.6976" y="1167.026">&#171;external&#187;</text><text fill="#000000" font-family="sans-serif" font-size="14" lengthAdjust="spacing" textLength="119.8955" x="2405.17" y="1185.508">pymavlink.mavutil</text><line style="stroke:#3B6EA5;stroke-width:0.5;" x1="2377.17" x2="2527.0655" y1="1194.6099" y2="1194.6099"/><line style="stroke:#3B6EA5;stroke-width:0.5;" x1="2377.17" x2="2527.0655" y1="1202.6099" y2="1202.6099"/></g><!--class fc--><g class="entity" data-qualified-name="fc" data-source-line="114" id="ent0017"><rect fill="#F7FAFF" height="80.4799" rx="2.5" ry="2.5" style="stroke:#3B6EA5;stroke-width:0.5;" width="138.7776" x="2382.73" y="1340.1779"/><ellipse cx="2397.73" cy="1372.4179" fill="#C97B7B" rx="11" ry="11" style="stroke:#181818;stroke-width:1;"/><path d="M2394.0894,1378.9179 L2394.0894,1366.7773 L2401.7456,1366.7773 L2401.7456,1368.9023 L2396.4644,1368.9023 L2396.4644,1371.5585 L2401.48,1371.5585 L2401.48,1373.6835 L2396.4644,1373.6835 L2396.4644,1376.7929 L2401.7456,1376.7929 L2401.7456,1378.9179 L2394.0894,1378.9179 Z " fill="#000000"/><text fill="#000000" font-family="sans-serif" font-size="12" font-style="italic" lengthAdjust="spacing" textLength="54.8404" x="2437.6986" y="1358.006">&#171;external&#187;</text><text fill="#000000" font-family="sans-serif" font-size="14" lengthAdjust="spacing" textLength="60.4798" x="2434.8789" y="1376.488">Autopilot</text><text fill="#000000" font-family="sans-serif" font-size="14" lengthAdjust="spacing" textLength="106.7776" x="2411.73" y="1395.5559">(ArduPilot / PX4)</text><line style="stroke:#3B6EA5;stroke-width:0.5;" x1="2383.73" x2="2520.5076" y1="1404.6579" y2="1404.6579"/><line style="stroke:#3B6EA5;stroke-width:0.5;" x1="2383.73" x2="2520.5076" y1="1412.6579" y2="1412.6579"/></g><!--class vision_ext--><g class="entity" data-qualified-name="vision_ext" data-source-line="116" id="ent0018"><rect fill="#F7FAFF" height="80.4799" rx="2.5" ry="2.5" style="stroke:#3B6EA5;stroke-width:0.5;" width="90.7298" x="49.76" y="257.8279"/><ellipse cx="64.76" cy="290.0679" fill="#C97B7B" rx="11" ry="11" style="stroke:#181818;stroke-width:1;"/><path d="M61.1194,296.5679 L61.1194,284.4273 L68.7756,284.4273 L68.7756,286.5523 L63.4944,286.5523 L63.4944,289.2085 L68.51,289.2085 L68.51,291.3335 L63.4944,291.3335 L63.4944,294.4429 L68.7756,294.4429 L68.7756,296.5679 L61.1194,296.5679 Z " fill="#000000"/><text fill="#000000" font-family="sans-serif" font-size="12" font-style="italic" lengthAdjust="spacing" textLength="54.8404" x="80.7047" y="275.656">&#171;external&#187;</text><text fill="#000000" font-family="sans-serif" font-size="14" lengthAdjust="spacing" textLength="39.4518" x="88.399" y="294.138">Vision</text><text fill="#000000" font-family="sans-serif" font-size="14" lengthAdjust="spacing" textLength="58.7298" x="78.76" y="313.2059">(module)</text><line style="stroke:#3B6EA5;stroke-width:0.5;" x1="50.76" x2="139.4898" y1="322.3079" y2="322.3079"/><line style="stroke:#3B6EA5;stroke-width:0.5;" x1="50.76" x2="139.4898" y1="330.3079" y2="330.3079"/></g><!--class control_ext--><g class="entity" data-qualified-name="control_ext" data-source-line="117" id="ent0019"><rect fill="#F7FAFF" height="80.4799" rx="2.5" ry="2.5" style="stroke:#3B6EA5;stroke-width:0.5;" width="115.0757" x="175.58" y="257.8279"/><ellipse cx="190.58" cy="290.0679" fill="#C97B7B" rx="11" ry="11" style="stroke:#181818;stroke-width:1;"/><path d="M186.9394,296.5679 L186.9394,284.4273 L194.5956,284.4273 L194.5956,286.5523 L189.3144,286.5523 L189.3144,289.2085 L194.33,289.2085 L194.33,291.3335 L189.3144,291.3335 L189.3144,294.4429 L194.5956,294.4429 L194.5956,296.5679 L186.9394,296.5679 Z " fill="#000000"/><text fill="#000000" font-family="sans-serif" font-size="12" font-style="italic" lengthAdjust="spacing" textLength="54.8404" x="218.6976" y="275.656">&#171;external&#187;</text><text fill="#000000" font-family="sans-serif" font-size="14" lengthAdjust="spacing" textLength="48.8878" x="221.6739" y="294.138">Control</text><text fill="#000000" font-family="sans-serif" font-size="14" lengthAdjust="spacing" textLength="83.0757" x="204.58" y="313.2059">(anchor calc)</text><line style="stroke:#3B6EA5;stroke-width:0.5;" x1="176.58" x2="289.6557" y1="322.3079" y2="322.3079"/><line style="stroke:#3B6EA5;stroke-width:0.5;" x1="176.58" x2="289.6557" y1="330.3079" y2="330.3079"/></g><g class="entity" data-qualified-name="N1" data-source-line="135" id="ent0033"><path d="M1076.07,46.0679 L1076.07,109.186 A0,0 0 0 0 1076.07,109.186 L1338.12,109.186 L1342.12,168.7679 L1346.12,109.186 L1608.1783,109.186 A0,0 0 0 0 1608.1783,109.186 L1608.1783,56.0679 L1598.1783,46.0679 L1076.07,46.0679 A0,0 0 0 0 1076.07,46.0679" fill="#FEFFDD" style="stroke:#181818;stroke-width:0.5;"/><path d="M1598.1783,46.0679 L1598.1783,56.0679 L1608.1783,56.0679 L1598.1783,46.0679" fill="#FEFFDD" style="stroke:#181818;stroke-width:0.5;"/><text fill="#000000" font-family="sans-serif" font-size="13" lengthAdjust="spacing" textLength="349.6223" x="1082.07" y="64.9649">Visual anchoring (hook): after GPS arrival at a WAYPOINT,</text><text fill="#000000" font-family="sans-serif" font-size="13" lengthAdjust="spacing" textLength="511.1083" x="1082.07" y="82.6709">_anchor_to_waypoint loops Camera -&gt; Vision -&gt; Control -&gt; Drone.move_for_duration</text><text fill="#000000" font-family="sans-serif" font-size="13" lengthAdjust="spacing" textLength="469.3914" x="1082.07" y="100.377">until Control returns None (anchored). No-op unless vision + control injected.</text></g><!--link Waypoint to MarkerType--><g class="link" data-entity-1="ent0003" data-entity-2="ent0002" data-link-type="dependency" data-source-line="119" id="lnk20"><path codeLine="119" d="M1839.12,872.9779 C1839.12,938.0479 1839.12,1012.6179 1839.12,1074.4279" fill="none" id="Waypoint-to-MarkerType" style="stroke:#3B6EA5;stroke-width:1;"/><polygon fill="#3B6EA5" points="1839.12,1079.4279,1843.12,1070.4279,1839.12,1074.4279,1835.12,1070.4279,1839.12,1079.4279" style="stroke:#3B6EA5;stroke-width:1;stroke-linejoin:miter;stroke-miterlimit:10;"/><text fill="#000000" font-family="sans-serif" font-size="13" lengthAdjust="spacing" textLength="52.6501" x="1786.12" y="972.1049">typed by</text><text fill="#000000" font-family="sans-serif" font-size="13" lengthAdjust="spacing" textLength="7.163" x="1831.9117" y="894.708">*</text><text fill="#000000" font-family="sans-serif" font-size="13" lengthAdjust="spacing" textLength="7.436" x="1831.8581" y="1067.6686">1</text></g><!--link DroneNavigator to Drone--><g class="link" data-entity-1="ent0005" data-entity-2="ent0014" data-link-type="aggregation" data-source-line="120" id="lnk21"><path codeLine="120" d="M1401.58,439.2879 C1401.58,495.0179 1401.58,535.6579 1401.58,535.6579 C1401.58,535.6579 1788.35,535.6579 2017.13,535.6579" fill="none" id="DroneNavigator-Drone" style="stroke:#3B6EA5;stroke-width:1;"/><polygon fill="none" points="1401.58,427.2879,1397.58,433.2879,1401.58,439.2879,1405.58,433.2879,1401.58,427.2879" style="stroke:#3B6EA5;stroke-width:1;stroke-linejoin:miter;stroke-miterlimit:10;"/><polygon fill="#3B6EA5" points="2022.13,535.6579,2013.13,531.6579,2017.13,535.6579,2013.13,539.6579,2022.13,535.6579" style="stroke:#3B6EA5;stroke-width:1;stroke-linejoin:miter;stroke-miterlimit:10;"/><text fill="#000000" font-family="sans-serif" font-size="13" lengthAdjust="spacing" textLength="83.1741" x="1573.67" y="531.5549">owns / injects</text><text fill="#000000" font-family="sans-serif" font-size="13" lengthAdjust="spacing" textLength="7.436" x="2006.6595" y="520.9134">1</text></g><!--link DroneNavigator to Waypoint--><g class="link" data-entity-1="ent0005" data-entity-2="ent0003" data-link-type="dependency" data-source-line="121" id="lnk22"><path codeLine="121" d="M1342.12,427.4179 C1342.12,535.3579 1342.12,671.6579 1342.12,671.6579 C1342.12,671.6579 1559.2,671.6579 1706.45,671.6579" fill="none" id="DroneNavigator-to-Waypoint" style="stroke:#3B6EA5;stroke-width:1;"/><polygon fill="#3B6EA5" points="1711.45,671.6579,1702.45,667.6579,1706.45,671.6579,1702.45,675.6579,1711.45,671.6579" style="stroke:#3B6EA5;stroke-width:1;stroke-linejoin:miter;stroke-miterlimit:10;"/><text fill="#000000" font-family="sans-serif" font-size="13" lengthAdjust="spacing" textLength="62.1141" x="1341.67" y="667.5549">consumes</text><text fill="#000000" font-family="sans-serif" font-size="13" lengthAdjust="spacing" textLength="7.163" x="1696.4618" y="663.0842">*</text></g><!--link DroneNavigator to EndExecution--><g class="link" data-entity-1="ent0005" data-entity-2="ent0006" data-link-type="dependency" data-source-line="122" id="lnk23"><path codeLine="122" d="M1461.42,297.6579 C1517.12,297.6579 1571.33,297.6579 1571.33,297.6579 C1571.33,297.6579 1571.33,591.2779 1571.33,705.0079" fill="none" id="DroneNavigator-to-EndExecution" style="stroke:#3B6EA5;stroke-width:1;stroke-dasharray:7,7;"/><polygon fill="#3B6EA5" points="1571.33,710.0079,1575.33,701.0079,1571.33,705.0079,1567.33,701.0079,1571.33,710.0079" style="stroke:#3B6EA5;stroke-width:1;stroke-linejoin:miter;stroke-miterlimit:10;"/><text fill="#000000" font-family="sans-serif" font-size="13" lengthAdjust="spacing" textLength="35.802" x="1535.33" y="444.7749">raises</text></g><!--link DroneNavigator to Camera--><g class="link" data-entity-1="ent0005" data-entity-2="ent0007" data-link-type="dependency" data-source-line="123" id="lnk24"><path codeLine="123" d="M1223.17,360.6579 C969.66,360.6579 399.12,360.6579 399.12,360.6579 C399.12,360.6579 399.12,607.4279 399.12,707.7479" fill="none" id="DroneNavigator-to-Camera" style="stroke:#3B6EA5;stroke-width:1;stroke-dasharray:7,7;"/><polygon fill="#3B6EA5" points="399.12,712.7479,403.12,703.7479,399.12,707.7479,395.12,703.7479,399.12,712.7479" style="stroke:#3B6EA5;stroke-width:1;stroke-linejoin:miter;stroke-miterlimit:10;"/><text fill="#000000" font-family="sans-serif" font-size="13" lengthAdjust="spacing" textLength="45.682" x="589.1" y="356.5549">camera</text></g><!--link DroneNavigator to VisionDetector--><g class="link" data-entity-1="ent0005" data-entity-2="ent0008" data-link-type="dependency" data-source-line="124" id="lnk25"><path codeLine="124" d="M1222.82,382.6579 C1023.28,382.6579 643.49,382.6579 643.49,382.6579 C643.49,382.6579 643.49,611.2779 643.49,707.5579" fill="none" id="DroneNavigator-to-VisionDetector" style="stroke:#3B6EA5;stroke-width:1;stroke-dasharray:7,7;"/><polygon fill="#3B6EA5" points="643.49,712.5579,647.49,703.5579,643.49,707.5579,639.49,703.5579,643.49,712.5579" style="stroke:#3B6EA5;stroke-width:1;stroke-linejoin:miter;stroke-miterlimit:10;"/><text fill="#000000" font-family="sans-serif" font-size="13" lengthAdjust="spacing" textLength="35.438" x="732.2" y="378.5549">vision</text></g><!--link DroneNavigator to AnchorController--><g class="link" data-entity-1="ent0005" data-entity-2="ent0009" data-link-type="dependency" data-source-line="125" id="lnk26"><path codeLine="125" d="M1223.03,404.6579 C1167.16,404.6579 1112.67,404.6579 1112.67,404.6579 C1112.67,404.6579 1112.67,615.6479 1112.67,707.6079" fill="none" id="DroneNavigator-to-AnchorController" style="stroke:#3B6EA5;stroke-width:1;stroke-dasharray:7,7;"/><polygon fill="#3B6EA5" points="1112.67,712.6079,1116.67,703.6079,1112.67,707.6079,1108.67,703.6079,1112.67,712.6079" style="stroke:#3B6EA5;stroke-width:1;stroke-linejoin:miter;stroke-miterlimit:10;"/><text fill="#000000" font-family="sans-serif" font-size="13" lengthAdjust="spacing" textLength="43.42" x="1068.67" y="499.3549">control</text></g><!--link Drone to mav--><g class="link" data-entity-1="ent0014" data-entity-2="ent0016" data-link-type="dependency" data-source-line="126" id="lnk27"><path codeLine="126" d="M2310.49,1019.9879 C2310.49,1106.0379 2310.49,1179.6579 2310.49,1179.6579 C2310.49,1179.6579 2337.39,1179.6579 2370.92,1179.6579" fill="none" id="Drone-to-mav" style="stroke:#3B6EA5;stroke-width:1;stroke-dasharray:7,7;"/><polygon fill="#3B6EA5" points="2375.92,1179.6579,2366.92,1175.6579,2370.92,1179.6579,2366.92,1183.6579,2375.92,1179.6579" style="stroke:#3B6EA5;stroke-width:1;stroke-linejoin:miter;stroke-miterlimit:10;"/><text fill="#000000" font-family="sans-serif" font-size="13" lengthAdjust="spacing" textLength="27.82" x="2282.49" y="1128.4349">uses</text></g><!--link Drone to hdist--><g class="link" data-entity-1="ent0014" data-entity-2="ent0015" data-link-type="dependency" data-source-line="127" id="lnk28"><path codeLine="127" d="M2183.12,1019.8379 C2183.12,1071.8779 2183.12,1114.4079 2183.12,1143.9179" fill="none" id="Drone-to-hdist" style="stroke:#3B6EA5;stroke-width:1;stroke-dasharray:7,7;"/><polygon fill="#3B6EA5" points="2183.12,1148.9179,2187.12,1139.9179,2183.12,1143.9179,2179.12,1139.9179,2183.12,1148.9179" style="stroke:#3B6EA5;stroke-width:1;stroke-linejoin:miter;stroke-miterlimit:10;"/><text fill="#000000" font-family="sans-serif" font-size="13" lengthAdjust="spacing" textLength="27.82" x="2155.12" y="1080.2749">uses</text></g><!--link mav to fc--><g class="link" data-entity-1="ent0016" data-entity-2="ent0017" data-link-type="dependency" data-source-line="128" id="lnk29"><path codeLine="128" d="M2452.12,1215.7979 C2452.12,1250.3979 2452.12,1296.6279 2452.12,1334.7779" fill="none" id="mav-fc" style="stroke:#3B6EA5;stroke-width:1;stroke-dasharray:7,7;"/><polygon fill="#3B6EA5" points="2452.12,1210.7979,2448.12,1219.7979,2452.12,1215.7979,2456.12,1219.7979,2452.12,1210.7979" style="stroke:#3B6EA5;stroke-width:1;stroke-linejoin:miter;stroke-miterlimit:10;"/><polygon fill="#3B6EA5" points="2452.12,1339.7779,2456.12,1330.7779,2452.12,1334.7779,2448.12,1330.7779,2452.12,1339.7779" style="stroke:#3B6EA5;stroke-width:1;stroke-linejoin:miter;stroke-miterlimit:10;"/><text fill="#000000" font-family="sans-serif" font-size="13" lengthAdjust="spacing" textLength="53.0401" x="2398.12" y="1271.1849">MAVLink</text></g><!--link vision_ext to Camera--><g class="link" data-entity-1="ent0018" data-entity-2="ent0007" data-link-type="extension" data-source-line="130" id="lnk30"><path codeLine="130" d="M80,338.4979 C80,449.9979 80,753.6579 80,753.6579 C80,753.6579 210.27,753.6579 304.68,753.6579" fill="none" id="vision_ext-to-Camera" style="stroke:#3B6EA5;stroke-width:1;stroke-dasharray:7,7;"/><polygon fill="none" points="322.68,753.6579,304.68,747.6579,304.68,759.6579,322.68,753.6579" style="stroke:#3B6EA5;stroke-width:1;stroke-linejoin:miter;stroke-miterlimit:10;"/><text fill="#000000" font-family="sans-serif" font-size="13" lengthAdjust="spacing" textLength="72.6311" x="7" y="663.3149">implements</text></g><!--link vision_ext to VisionDetector--><g class="link" data-entity-1="ent0018" data-entity-2="ent0008" data-link-type="extension" data-source-line="131" id="lnk31"><path codeLine="131" d="M110.24,338.5179 C110.24,417.5179 110.24,584.6579 110.24,584.6579 C110.24,584.6579 576.75,584.6579 576.75,584.6579 C576.75,584.6579 576.75,645.0079 576.75,694.8979" fill="none" id="vision_ext-to-VisionDetector" style="stroke:#3B6EA5;stroke-width:1;stroke-dasharray:7,7;"/><polygon fill="none" points="576.75,712.8979,582.75,694.8979,570.75,694.8979,576.75,712.8979" style="stroke:#3B6EA5;stroke-width:1;stroke-linejoin:miter;stroke-miterlimit:10;"/><text fill="#000000" font-family="sans-serif" font-size="13" lengthAdjust="spacing" textLength="72.6311" x="211.55" y="580.5549">implements</text></g><!--link control_ext to AnchorController--><g class="link" data-entity-1="ent0019" data-entity-2="ent0009" data-link-type="extension" data-source-line="132" id="lnk32"><path codeLine="132" d="M290.88,297.6579 C454.69,297.6579 910.52,297.6579 910.52,297.6579 C910.52,297.6579 910.52,583.3379 910.52,694.8479" fill="none" id="control_ext-to-AnchorController" style="stroke:#3B6EA5;stroke-width:1;stroke-dasharray:7,7;"/><polygon fill="none" points="910.52,712.8479,916.52,694.8479,904.52,694.8479,910.52,712.8479" style="stroke:#3B6EA5;stroke-width:1;stroke-linejoin:miter;stroke-miterlimit:10;"/><text fill="#000000" font-family="sans-serif" font-size="13" lengthAdjust="spacing" textLength="72.6311" x="735.29" y="293.5549">implements</text></g><?plantuml-src XLVhRjis5Fxlfo3SF_9YkqspDQtHEL1ikJNg6tnfDs20m4YKpOKI1P9oudG5zX1xmZt93YdIaI_jVYIXpldEuU6vV6GaKIZ3AP4vZiY2v5XWnGNAU4PgYYf6q9XAINc6nZmkuFFVl_z1g_48zHYM4lKfNWkSrchodcRQE4MHLlXA2NfNA3ACUBQWJmIzga3a1iVyWMPhb60cIKN3Q4RKBYU82xNX5GM4Tu_NPA5s48CWaSBPcf7ZRT7N6aAt05qBNcHnZpCuoul1zS0V3BI6YvW8AxswVHFulu3K5u8_70g_rMfsGrH_mBkSqqoryrtT-2TPaQ8n5lT4B7MeMeRG5__tsNGuMQ9VqUKR8nbDXyjW7guce-5OIw-hqkLgFbbewTi3wN0SQE4x8vm76XKkf-78Nqrw7q7p-bK9zoTz_NLflfR-fs0w66Z1QoFeVVGd7u9mCGk2ljbPRm9dGZPBN-oHREWNxeWXZL47mQ8KKnb6XH04W1rqnpahnGcacrHngSb5QEhMgMIcr9hoI50mAjNxX76ikgM6OUtOIAm0skn0WDaXejKgvHlEub1H4uRHelVlSy5p8jIkMth_AXLMDFg6BjOa8z3L94m4Jxs4Cj9mqRX4T4r-gbLdV4sZVSdBjFK5JCK4R-dQp4YPl5OOQp5uD6ehSncLOOmLFhUTHaMGIA6rFREuiU8jDGFNGP_DeayKz3iNJWqJfGHdeFUpQCEXdyqt8mxHScMXcTTuDf95Ifu3-wx6UyYTAc6xKF6AW76gY0114qa2Xh5q6cn20VI17mHrsN1-t-sw1YIF4ScLFbwGnS4ZYGhpuN997gc2YE9gVxL2e2Ufgz91KWdd2TH49C1QDdkmrKnmnIFEkbtNsMkYGjEldgwvMTqO1rNxmpIVzIEAB8mD092UyQCTnZHIf_wEotBMeqrOnDCKPx6tTwxTUZ4LvHVaEISaRgAuW1RMwXjt_emh0bEf54yHJuwQq-pXc3ldZ4Oxf0iDjAbansZzNY-OBVr9BmZdVd-uMeJZ9lBdy-5dVsI8QBfQXekcmNwOBSBHjFUf8aVJ-UrmMN9CEBOuVxGSBbVz03Xh5CoDRt1g-UdPs91eR4vmC7HcaiuDtRu_KYmXowuROUvVeb2p1lmvuOfG443GBJcZMkSoJEWZYRNb1iimvvAgSkhsJES6gQ9JHGxtpmdPN3pxA-tFGChGJnNjDbeIHbAYn0u-Id2Hnvgn68ymeq-cydPWWQnXH19e7Rqd0EuzJOIyK8q3bjx3uF1K5J7n51Om3asaE8DVFxOHWcunyo1_JSHq6meSqq9-nowckh4Yeid2cJGECWw7x9MTBlTdn2A5gNm9GoJDifHAcDWK2C3JlwnipIkEcmXEP1KAtnEU99wMW2Uc9wbHkI9SvRJnZR6-CUOt5YI8AaIcMOlX0WRI6KSRU5wGqCoUPoSGKs5M5iB57LMUIul5Q6_mrMwtzwV9ud1Be4nKxRpjOnDjT_3pr4Gx_13gMya2KmvzgbFl1brpmEdq7uDjuW_1LbYfKUNkhmFhq2VW9ipsvY5aluwmH1ijWHRr1iqNmLl_wghVG0aaHkyDxGfkh9Dyb-8jFDRks_0NA9mPSrXhuw3velVk-lRwjW5q3psVOU0zP-aNYkUKSVL7vlaYBcPw3RMR_VPp6KCIVT-7Sr8oDdX8pQEqD2olJRX2rFy6ORaP79GqZ63CejABlLr_xAQsVq7LVwe3JtHH_R9UVHC2Ky2V6DtjQaUl1kxGVVjiu0-PXFFJx4-WV7aCDsZOOxzX1zaB-mJQRdSFBzKEJ2sLvu4zz_Geto3d84VNOiSc-1pqvCRhk3oMQ0FItT51nJuW8omxpefD_sWfz00y9FtF8-YmMgrIs7RxhqhiDCqrSSALTe8v2Rw2hPROWC-4Nu7Np4qBhJ7HpsrmN626ohxH_y9u-e7Jw22SQ7g7cn9PzaHmFU7z_mNwWZppIW9EuhbqHsgvmFNAngEN9b_j4uu0bqK6mxU7bdm6aUhqsju6ncg3eCLp03DuITaweWjN8zjx96xNzjVov59pzj6ZuZy0?></g></svg>