<?xml version="1.0" encoding="UTF-8" standalone="no"?>
<!DOCTYPE svg PUBLIC "-//W3C//DTD SVG 1.1//EN"
 "http://www.w3.org/Graphics/SVG/1.1/DTD/svg11.dtd">
<!-- Generated by graphviz version 14.1.5 (0)
 -->
<!-- Title: mission_flow Pages: 1 -->
<svg width="1113pt" height="749pt"
 viewBox="0.00 0.00 1113.00 749.00" xmlns="http://www.w3.org/2000/svg" xmlns:xlink="http://www.w3.org/1999/xlink">
<g id="graph0" class="graph" transform="scale(1 1) rotate(0) translate(4 744.99)">
<title>mission_flow</title>
<polygon fill="white" stroke="none" points="-4,4 -4,-744.99 1109.42,-744.99 1109.42,4 -4,4"/>
<text xml:space="preserve" text-anchor="middle" x="552.71" y="-721.79" font-family="Helvetica,sans-Serif" font-size="16.00">Mission Module — Execution Flowchart (DroneNavigator)</text>
<!-- start -->
<g id="node1" class="node">
<title>start</title>
<ellipse fill="#cdebcb" stroke="black" cx="382.42" cy="-695.49" rx="32.42" ry="18"/>
<text xml:space="preserve" text-anchor="middle" x="382.42" y="-691.79" font-family="Helvetica,sans-Serif" font-size="11.00">main()</text>
</g>
<!-- load -->
<g id="node2" class="node">
<title>load</title>
<path fill="#eaf1fb" stroke="black" d="M459.05,-640.49C459.05,-640.49 305.8,-640.49 305.8,-640.49 299.8,-640.49 293.8,-634.49 293.8,-628.49 293.8,-628.49 293.8,-590.49 293.8,-590.49 293.8,-584.49 299.8,-578.49 305.8,-578.49 305.8,-578.49 459.05,-578.49 459.05,-578.49 465.05,-578.49 471.05,-584.49 471.05,-590.49 471.05,-590.49 471.05,-628.49 471.05,-628.49 471.05,-634.49 465.05,-640.49 459.05,-640.49"/>
<text xml:space="preserve" text-anchor="middle" x="382.42" y="-626.04" font-family="Helvetica,sans-Serif" font-size="11.00">Waypoint.generate_from(file)</text>
<text xml:space="preserve" text-anchor="middle" x="382.42" y="-612.54" font-family="Helvetica,sans-Serif" font-size="11.00">• parse QGC WPL</text>
<text xml:space="preserve" text-anchor="middle" x="382.42" y="-599.04" font-family="Helvetica,sans-Serif" font-size="11.00">• skip HOME (row 0)</text>
<text xml:space="preserve" text-anchor="middle" x="382.42" y="-585.54" font-family="Helvetica,sans-Serif" font-size="11.00">• skip unsupported cmd ids</text>
</g>
<!-- start&#45;&gt;load -->
<g id="edge1" class="edge">
<title>start&#45;&gt;load</title>
<path fill="none" stroke="#3b6ea5" d="M382.42,-677.09C382.42,-669.81 382.42,-661 382.42,-652.21"/>
<polygon fill="#3b6ea5" stroke="#3b6ea5" points="385.92,-652.3 382.42,-642.3 378.92,-652.3 385.92,-652.3"/>
</g>
<!-- gps -->
<g id="node3" class="node">
<title>gps</title>
<polygon fill="#fbf0c4" stroke="black" points="382.42,-541.49 271.17,-506.49 382.42,-471.49 493.67,-506.49 382.42,-541.49"/>
<text xml:space="preserve" text-anchor="middle" x="382.42" y="-509.54" font-family="Helvetica,sans-Serif" font-size="11.00">wait_for_gps_lock</text>
<text xml:space="preserve" text-anchor="middle" x="382.42" y="-496.04" font-family="Helvetica,sans-Serif" font-size="11.00">(real position?)</text>
</g>
<!-- load&#45;&gt;gps -->
<g id="edge2" class="edge">
<title>load&#45;&gt;gps</title>
<path fill="none" stroke="#3b6ea5" d="M382.42,-578.19C382.42,-570.28 382.42,-561.58 382.42,-553.07"/>
<polygon fill="#3b6ea5" stroke="#3b6ea5" points="385.92,-553.18 382.42,-543.18 378.92,-553.18 385.92,-553.18"/>
</g>
<!-- abgps -->
<g id="node4" class="node">
<title>abgps</title>
<ellipse fill="#f4c7c3" stroke="black" cx="365.42" cy="-399.5" rx="74.42" ry="24.75"/>
<text xml:space="preserve" text-anchor="middle" x="365.42" y="-402.55" font-family="Helvetica,sans-Serif" font-size="11.00">EndExecution(1)</text>
<text xml:space="preserve" text-anchor="middle" x="365.42" y="-389.05" font-family="Helvetica,sans-Serif" font-size="11.00">GPS timeout</text>
</g>
<!-- gps&#45;&gt;abgps -->
<g id="edge3" class="edge">
<title>gps&#45;&gt;abgps</title>
<path fill="none" stroke="#3b6ea5" d="M377.14,-472.85C375.22,-460.99 373.04,-447.54 371.09,-435.48"/>
<polygon fill="#3b6ea5" stroke="#3b6ea5" points="374.6,-435.26 369.54,-425.94 367.69,-436.37 374.6,-435.26"/>
<text xml:space="preserve" text-anchor="middle" x="379.55" y="-444.94" font-family="Helvetica,sans-Serif" font-size="9.00">no</text>
</g>
<!-- loop -->
<g id="node5" class="node">
<title>loop</title>
<polygon fill="#fbf0c4" stroke="black" points="555.42,-417.5 458.01,-399.5 555.42,-381.5 652.84,-399.5 555.42,-417.5"/>
<text xml:space="preserve" text-anchor="middle" x="555.42" y="-395.8" font-family="Helvetica,sans-Serif" font-size="11.00">more waypoints?</text>
</g>
<!-- gps&#45;&gt;loop -->
<g id="edge4" class="edge">
<title>gps&#45;&gt;loop</title>
<path fill="none" stroke="#3b6ea5" d="M419.54,-482.97C450.62,-464.1 494.5,-437.47 523.9,-419.63"/>
<polygon fill="#3b6ea5" stroke="#3b6ea5" points="525.63,-422.67 532.36,-414.49 522,-416.69 525.63,-422.67"/>
<text xml:space="preserve" text-anchor="middle" x="491.92" y="-444.94" font-family="Helvetica,sans-Serif" font-size="9.00">yes</text>
</g>
<!-- done -->
<g id="node6" class="node">
<title>done</title>
<ellipse fill="#cdebcb" stroke="black" cx="74.42" cy="-302.75" rx="74.42" ry="24.75"/>
<text xml:space="preserve" text-anchor="middle" x="74.42" y="-305.8" font-family="Helvetica,sans-Serif" font-size="11.00">EndExecution(0)</text>
<text xml:space="preserve" text-anchor="middle" x="74.42" y="-292.3" font-family="Helvetica,sans-Serif" font-size="11.00">all complete</text>
</g>
<!-- loop&#45;&gt;done -->
<g id="edge5" class="edge">
<title>loop&#45;&gt;done</title>
<path fill="none" stroke="#3b6ea5" d="M516.56,-388.32C496.38,-383.43 471.22,-377.95 448.42,-374.75 382.89,-365.55 213.73,-378.34 151.17,-356.75 136.05,-351.53 121.16,-342.44 108.59,-333.25"/>
<polygon fill="#3b6ea5" stroke="#3b6ea5" points="110.73,-330.48 100.66,-327.18 106.48,-336.04 110.73,-330.48"/>
<text xml:space="preserve" text-anchor="middle" x="156.8" y="-348.2" font-family="Helvetica,sans-Serif" font-size="9.00">no</text>
</g>
<!-- disp -->
<g id="node7" class="node">
<title>disp</title>
<path fill="#e3d7f4" stroke="black" d="M619.67,-320.75C619.67,-320.75 491.17,-320.75 491.17,-320.75 485.17,-320.75 479.17,-314.75 479.17,-308.75 479.17,-308.75 479.17,-296.75 479.17,-296.75 479.17,-290.75 485.17,-284.75 491.17,-284.75 491.17,-284.75 619.67,-284.75 619.67,-284.75 625.67,-284.75 631.67,-290.75 631.67,-296.75 631.67,-296.75 631.67,-308.75 631.67,-308.75 631.67,-314.75 625.67,-320.75 619.67,-320.75"/>
<text xml:space="preserve" text-anchor="middle" x="555.42" y="-305.8" font-family="Helvetica,sans-Serif" font-size="11.00">_consume_waypoint(wp)</text>
<text xml:space="preserve" text-anchor="middle" x="555.42" y="-292.3" font-family="Helvetica,sans-Serif" font-size="11.00">dispatch on marker_type</text>
</g>
<!-- loop&#45;&gt;disp -->
<g id="edge6" class="edge">
<title>loop&#45;&gt;disp</title>
<path fill="none" stroke="#3b6ea5" d="M555.42,-381.12C555.42,-367.5 555.42,-348.25 555.42,-332.36"/>
<polygon fill="#3b6ea5" stroke="#3b6ea5" points="558.92,-332.53 555.42,-322.53 551.92,-332.53 558.92,-332.53"/>
<text xml:space="preserve" text-anchor="middle" x="562.92" y="-348.2" font-family="Helvetica,sans-Serif" font-size="9.00">yes</text>
</g>
<!-- takeoff -->
<g id="node8" class="node">
<title>takeoff</title>
<path fill="#eaf1fb" stroke="black" d="M312.17,-230.75C312.17,-230.75 216.67,-230.75 216.67,-230.75 210.67,-230.75 204.67,-224.75 204.67,-218.75 204.67,-218.75 204.67,-194.25 204.67,-194.25 204.67,-188.25 210.67,-182.25 216.67,-182.25 216.67,-182.25 312.17,-182.25 312.17,-182.25 318.17,-182.25 324.17,-188.25 324.17,-194.25 324.17,-194.25 324.17,-218.75 324.17,-218.75 324.17,-224.75 318.17,-230.75 312.17,-230.75"/>
<text xml:space="preserve" text-anchor="middle" x="264.42" y="-216.3" font-family="Helvetica,sans-Serif" font-size="11.00">TAKEOFF</text>
<text xml:space="preserve" text-anchor="middle" x="264.42" y="-202.8" font-family="Helvetica,sans-Serif" font-size="11.00">drone.takeoff(alt)</text>
<text xml:space="preserve" text-anchor="middle" x="264.42" y="-189.3" font-family="Helvetica,sans-Serif" font-size="11.00">→ wait_for_altitude</text>
</g>
<!-- disp&#45;&gt;takeoff -->
<g id="edge7" class="edge">
<title>disp&#45;&gt;takeoff</title>
<path fill="none" stroke="#3b6ea5" d="M500.15,-284.33C457.65,-270.88 397.19,-251.62 335.36,-231.37"/>
<polygon fill="#3b6ea5" stroke="#3b6ea5" points="336.65,-228.11 326.05,-228.32 334.46,-234.76 336.65,-228.11"/>
<text xml:space="preserve" text-anchor="middle" x="439" y="-251.45" font-family="Helvetica,sans-Serif" font-size="9.00">TAKEOFF</text>
</g>
<!-- land -->
<g id="node9" class="node">
<title>land</title>
<path fill="#eaf1fb" stroke="black" d="M958.17,-224.5C958.17,-224.5 898.67,-224.5 898.67,-224.5 892.67,-224.5 886.67,-218.5 886.67,-212.5 886.67,-212.5 886.67,-200.5 886.67,-200.5 886.67,-194.5 892.67,-188.5 898.67,-188.5 898.67,-188.5 958.17,-188.5 958.17,-188.5 964.17,-188.5 970.17,-194.5 970.17,-200.5 970.17,-200.5 970.17,-212.5 970.17,-212.5 970.17,-218.5 964.17,-224.5 958.17,-224.5"/>
<text xml:space="preserve" text-anchor="middle" x="928.42" y="-209.55" font-family="Helvetica,sans-Serif" font-size="11.00">LAND</text>
<text xml:space="preserve" text-anchor="middle" x="928.42" y="-196.05" font-family="Helvetica,sans-Serif" font-size="11.00">drone.land()</text>
</g>
<!-- disp&#45;&gt;land -->
<g id="edge8" class="edge">
<title>disp&#45;&gt;land</title>
<path fill="none" stroke="#3b6ea5" d="M632.16,-289.66C698.21,-278.12 795.52,-258.38 877.42,-230.75 878.98,-230.23 880.55,-229.67 882.13,-229.09"/>
<polygon fill="#3b6ea5" stroke="#3b6ea5" points="883.16,-232.44 891.17,-225.5 880.58,-225.94 883.16,-232.44"/>
<text xml:space="preserve" text-anchor="middle" x="829.5" y="-251.45" font-family="Helvetica,sans-Serif" font-size="9.00">LAND</text>
</g>
<!-- rtl -->
<g id="node10" class="node">
<title>rtl</title>
<path fill="#eaf1fb" stroke="black" d="M482.3,-224.5C482.3,-224.5 354.55,-224.5 354.55,-224.5 348.55,-224.5 342.55,-218.5 342.55,-212.5 342.55,-212.5 342.55,-200.5 342.55,-200.5 342.55,-194.5 348.55,-188.5 354.55,-188.5 354.55,-188.5 482.3,-188.5 482.3,-188.5 488.3,-188.5 494.3,-194.5 494.3,-200.5 494.3,-200.5 494.3,-212.5 494.3,-212.5 494.3,-218.5 488.3,-224.5 482.3,-224.5"/>
<text xml:space="preserve" text-anchor="middle" x="418.42" y="-209.55" font-family="Helvetica,sans-Serif" font-size="11.00">RETURN_TO_LAUNCH</text>
<text xml:space="preserve" text-anchor="middle" x="418.42" y="-196.05" font-family="Helvetica,sans-Serif" font-size="11.00">drone.return_to_launch()</text>
</g>
<!-- disp&#45;&gt;rtl -->
<g id="edge9" class="edge">
<title>disp&#45;&gt;rtl</title>
<path fill="none" stroke="#3b6ea5" d="M537.23,-284.47C525.29,-273.56 509.03,-259.54 493.42,-248.75 484.07,-242.28 473.61,-236 463.54,-230.36"/>
<polygon fill="#3b6ea5" stroke="#3b6ea5" points="465.44,-227.41 454.99,-225.69 462.08,-233.55 465.44,-227.41"/>
<text xml:space="preserve" text-anchor="middle" x="516.02" y="-251.45" font-family="Helvetica,sans-Serif" font-size="9.00">RTL</text>
</g>
<!-- speed -->
<g id="node11" class="node">
<title>speed</title>
<path fill="#eaf1fb" stroke="black" d="M856.3,-224.5C856.3,-224.5 728.55,-224.5 728.55,-224.5 722.55,-224.5 716.55,-218.5 716.55,-212.5 716.55,-212.5 716.55,-200.5 716.55,-200.5 716.55,-194.5 722.55,-188.5 728.55,-188.5 728.55,-188.5 856.3,-188.5 856.3,-188.5 862.3,-188.5 868.3,-194.5 868.3,-200.5 868.3,-200.5 868.3,-212.5 868.3,-212.5 868.3,-218.5 862.3,-224.5 856.3,-224.5"/>
<text xml:space="preserve" text-anchor="middle" x="792.42" y="-209.55" font-family="Helvetica,sans-Serif" font-size="11.00">CHANGE_SPEED</text>
<text xml:space="preserve" text-anchor="middle" x="792.42" y="-196.05" font-family="Helvetica,sans-Serif" font-size="11.00">drone.change_speed(p2)</text>
</g>
<!-- disp&#45;&gt;speed -->
<g id="edge10" class="edge">
<title>disp&#45;&gt;speed</title>
<path fill="none" stroke="#3b6ea5" d="M597.14,-284.27C614.34,-276.94 634.41,-268.23 652.42,-260 662.86,-255.23 665.08,-253.17 675.67,-248.75 692.6,-241.69 711.2,-234.76 728.49,-228.65"/>
<polygon fill="#3b6ea5" stroke="#3b6ea5" points="729.35,-232.06 737.63,-225.46 727.04,-225.45 729.35,-232.06"/>
<text xml:space="preserve" text-anchor="middle" x="712.05" y="-251.45" font-family="Helvetica,sans-Serif" font-size="9.00">CHANGE_SPEED</text>
</g>
<!-- flyto -->
<g id="node12" class="node">
<title>flyto</title>
<path fill="#d7ecf7" stroke="black" d="M686.17,-224.5C686.17,-224.5 524.67,-224.5 524.67,-224.5 518.67,-224.5 512.67,-218.5 512.67,-212.5 512.67,-212.5 512.67,-200.5 512.67,-200.5 512.67,-194.5 518.67,-188.5 524.67,-188.5 524.67,-188.5 686.17,-188.5 686.17,-188.5 692.17,-188.5 698.17,-194.5 698.17,-200.5 698.17,-200.5 698.17,-212.5 698.17,-212.5 698.17,-218.5 692.17,-224.5 686.17,-224.5"/>
<text xml:space="preserve" text-anchor="middle" x="605.42" y="-209.55" font-family="Helvetica,sans-Serif" font-size="11.00">_fly_to(wp)</text>
<text xml:space="preserve" text-anchor="middle" x="605.42" y="-196.05" font-family="Helvetica,sans-Serif" font-size="11.00">drone.goto() → wait_for_arrival</text>
</g>
<!-- disp&#45;&gt;flyto -->
<g id="edge11" class="edge">
<title>disp&#45;&gt;flyto</title>
<path fill="none" stroke="#3b6ea5" d="M552.27,-284.7C551.09,-273.88 551.12,-259.88 556.42,-248.75 559.31,-242.71 563.54,-237.22 568.34,-232.37"/>
<polygon fill="#3b6ea5" stroke="#3b6ea5" points="570.54,-235.1 575.67,-225.82 565.88,-229.88 570.54,-235.1"/>
<text xml:space="preserve" text-anchor="middle" x="604.42" y="-251.45" font-family="Helvetica,sans-Serif" font-size="9.00">WAYPOINT / LOITER_*</text>
</g>
<!-- takeoff&#45;&gt;loop -->
<g id="edge20" class="edge">
<title>takeoff&#45;&gt;loop</title>
<path fill="none" stroke="#3b6ea5" d="M296.77,-231.14C330.84,-255.81 386.26,-295.32 435.42,-327.5 456.33,-341.18 461.95,-343.98 483.42,-356.75 496.13,-364.3 510.19,-372.49 522.48,-379.6"/>
<polygon fill="#3b6ea5" stroke="#3b6ea5" points="520.6,-382.55 531.01,-384.52 524.1,-376.49 520.6,-382.55"/>
</g>
<!-- abarr -->
<g id="node13" class="node">
<title>abarr</title>
<ellipse fill="#f4c7c3" stroke="black" cx="264.42" cy="-104" rx="74.42" ry="24.75"/>
<text xml:space="preserve" text-anchor="middle" x="264.42" y="-107.05" font-family="Helvetica,sans-Serif" font-size="11.00">EndExecution(1)</text>
<text xml:space="preserve" text-anchor="middle" x="264.42" y="-93.55" font-family="Helvetica,sans-Serif" font-size="11.00">arrival timeout</text>
</g>
<!-- takeoff&#45;&gt;abarr -->
<g id="edge12" class="edge">
<title>takeoff&#45;&gt;abarr</title>
<path fill="none" stroke="#c0392b" stroke-dasharray="5,2" d="M264.42,-181.94C264.42,-169.52 264.42,-154.03 264.42,-140.22"/>
<polygon fill="#c0392b" stroke="#c0392b" points="267.92,-140.63 264.42,-130.63 260.92,-140.63 267.92,-140.63"/>
<text xml:space="preserve" text-anchor="middle" x="289.17" y="-155.7" font-family="Helvetica,sans-Serif" font-size="9.00">alt timeout</text>
</g>
<!-- land&#45;&gt;loop -->
<g id="edge21" class="edge">
<title>land&#45;&gt;loop</title>
<path fill="none" stroke="#3b6ea5" d="M909.36,-224.71C881.04,-249.68 825.46,-296.35 772.42,-327.5 744.05,-344.16 735.44,-345.79 704.42,-356.75 672.67,-367.97 636.29,-378.21 607.42,-385.74"/>
<polygon fill="#3b6ea5" stroke="#3b6ea5" points="606.63,-382.33 597.82,-388.22 608.37,-389.11 606.63,-382.33"/>
</g>
<!-- rtl&#45;&gt;loop -->
<g id="edge22" class="edge">
<title>rtl&#45;&gt;loop</title>
<path fill="none" stroke="#3b6ea5" d="M421.9,-224.88C424.26,-235.28 427.8,-248.64 432.42,-260 445.41,-291.88 448.41,-301.03 470.42,-327.5 486.5,-346.83 508.34,-364.94 525.85,-378.03"/>
<polygon fill="#3b6ea5" stroke="#3b6ea5" points="523.71,-380.8 533.85,-383.87 527.84,-375.15 523.71,-380.8"/>
</g>
<!-- speed&#45;&gt;loop -->
<g id="edge23" class="edge">
<title>speed&#45;&gt;loop</title>
<path fill="none" stroke="#3b6ea5" d="M798.46,-224.68C801.17,-235.51 802.56,-249.4 796.42,-260 755.89,-330.04 665.05,-367.75 607.2,-385.43"/>
<polygon fill="#3b6ea5" stroke="#3b6ea5" points="606.5,-381.99 597.9,-388.17 608.48,-388.7 606.5,-381.99"/>
</g>
<!-- flyto&#45;&gt;abarr -->
<g id="edge13" class="edge">
<title>flyto&#45;&gt;abarr</title>
<path fill="none" stroke="#c0392b" stroke-dasharray="5,2" d="M535.72,-188.07C483.55,-174.63 410.61,-155.02 347.42,-135 339.5,-132.49 331.21,-129.7 323.06,-126.85"/>
<polygon fill="#c0392b" stroke="#c0392b" points="324.5,-123.65 313.9,-123.61 322.16,-130.25 324.5,-123.65"/>
<text xml:space="preserve" text-anchor="middle" x="463.75" y="-155.7" font-family="Helvetica,sans-Serif" font-size="9.00">timeout</text>
</g>
<!-- turns -->
<g id="node14" class="node">
<title>turns</title>
<path fill="#eaf1fb" stroke="black" d="M159.92,-122C159.92,-122 14.92,-122 14.92,-122 8.92,-122 2.92,-116 2.92,-110 2.92,-110 2.92,-98 2.92,-98 2.92,-92 8.92,-86 14.92,-86 14.92,-86 159.92,-86 159.92,-86 165.92,-86 171.92,-92 171.92,-98 171.92,-98 171.92,-110 171.92,-110 171.92,-116 165.92,-122 159.92,-122"/>
<text xml:space="preserve" text-anchor="middle" x="87.42" y="-107.05" font-family="Helvetica,sans-Serif" font-size="11.00">LOITER_TURNS</text>
<text xml:space="preserve" text-anchor="middle" x="87.42" y="-93.55" font-family="Helvetica,sans-Serif" font-size="11.00">drone.orbit() → sleep(turns)</text>
</g>
<!-- flyto&#45;&gt;turns -->
<g id="edge14" class="edge">
<title>flyto&#45;&gt;turns</title>
<path fill="none" stroke="#3b6ea5" d="M531.45,-188.02C522.04,-185.98 512.52,-184 503.42,-182.25 421.25,-166.44 400.24,-164.99 317.42,-153 257.08,-144.26 240.92,-148.32 181.42,-135 170.15,-132.48 158.29,-129.2 146.94,-125.74"/>
<polygon fill="#3b6ea5" stroke="#3b6ea5" points="148.28,-122.49 137.69,-122.84 146.18,-129.17 148.28,-122.49"/>
</g>
<!-- ltime -->
<g id="node15" class="node">
<title>ltime</title>
<path fill="#eaf1fb" stroke="black" d="M1065.55,-122C1065.55,-122 933.3,-122 933.3,-122 927.3,-122 921.3,-116 921.3,-110 921.3,-110 921.3,-98 921.3,-98 921.3,-92 927.3,-86 933.3,-86 933.3,-86 1065.55,-86 1065.55,-86 1071.55,-86 1077.55,-92 1077.55,-98 1077.55,-98 1077.55,-110 1077.55,-110 1077.55,-116 1071.55,-122 1065.55,-122"/>
<text xml:space="preserve" text-anchor="middle" x="999.42" y="-107.05" font-family="Helvetica,sans-Serif" font-size="11.00">LOITER_TIME</text>
<text xml:space="preserve" text-anchor="middle" x="999.42" y="-93.55" font-family="Helvetica,sans-Serif" font-size="11.00">hold_position → sleep(p1)</text>
</g>
<!-- flyto&#45;&gt;ltime -->
<g id="edge15" class="edge">
<title>flyto&#45;&gt;ltime</title>
<path fill="none" stroke="#3b6ea5" d="M681.84,-188.05C770.92,-167.71 906.79,-136.61 912.42,-135 921.8,-132.32 931.65,-129.21 941.21,-126.03"/>
<polygon fill="#3b6ea5" stroke="#3b6ea5" points="942.07,-129.43 950.42,-122.91 939.82,-122.8 942.07,-129.43"/>
</g>
<!-- lunlim -->
<g id="node16" class="node">
<title>lunlim</title>
<path fill="#eaf1fb" stroke="black" d="M496.3,-122C496.3,-122 368.55,-122 368.55,-122 362.55,-122 356.55,-116 356.55,-110 356.55,-110 356.55,-98 356.55,-98 356.55,-92 362.55,-86 368.55,-86 368.55,-86 496.3,-86 496.3,-86 502.3,-86 508.3,-92 508.3,-98 508.3,-98 508.3,-110 508.3,-110 508.3,-116 502.3,-122 496.3,-122"/>
<text xml:space="preserve" text-anchor="middle" x="432.42" y="-107.05" font-family="Helvetica,sans-Serif" font-size="11.00">LOITER_UNLIM</text>
<text xml:space="preserve" text-anchor="middle" x="432.42" y="-93.55" font-family="Helvetica,sans-Serif" font-size="11.00">hold_position → sleep(∞)</text>
</g>
<!-- flyto&#45;&gt;lunlim -->
<g id="edge16" class="edge">
<title>flyto&#45;&gt;lunlim</title>
<path fill="none" stroke="#3b6ea5" d="M575.68,-188.22C547.09,-171.61 503.68,-146.4 472.14,-128.07"/>
<polygon fill="#3b6ea5" stroke="#3b6ea5" points="474.07,-125.14 463.66,-123.15 470.55,-131.2 474.07,-125.14"/>
</g>
<!-- anchor -->
<g id="node17" class="node">
<title>anchor</title>
<path fill="#d6f0de" stroke="black" d="M840.67,-135C840.67,-135 538.17,-135 538.17,-135 532.17,-135 526.17,-129 526.17,-123 526.17,-123 526.17,-85 526.17,-85 526.17,-79 532.17,-73 538.17,-73 538.17,-73 840.67,-73 840.67,-73 846.67,-73 852.67,-79 852.67,-85 852.67,-85 852.67,-123 852.67,-123 852.67,-129 846.67,-135 840.67,-135"/>
<text xml:space="preserve" text-anchor="middle" x="689.42" y="-120.55" font-family="Helvetica,sans-Serif" font-size="11.00">_anchor_to_waypoint (HOOK)</text>
<text xml:space="preserve" text-anchor="middle" x="689.42" y="-107.05" font-family="Helvetica,sans-Serif" font-size="11.00">loop: Camera→Vision→Control→drone.move_for_duration</text>
<text xml:space="preserve" text-anchor="middle" x="689.42" y="-93.55" font-family="Helvetica,sans-Serif" font-size="11.00">until anchored or budget spent</text>
<text xml:space="preserve" text-anchor="middle" x="689.42" y="-80.05" font-family="Helvetica,sans-Serif" font-size="11.00">(no&#45;op unless vision+control injected)</text>
</g>
<!-- flyto&#45;&gt;anchor -->
<g id="edge17" class="edge">
<title>flyto&#45;&gt;anchor</title>
<path fill="none" stroke="#3b6ea5" d="M619.67,-188.45C629.94,-176.17 644.22,-159.09 657.18,-143.58"/>
<polygon fill="#3b6ea5" stroke="#3b6ea5" points="659.51,-146.24 663.24,-136.33 654.14,-141.76 659.51,-146.24"/>
<text xml:space="preserve" text-anchor="middle" x="670.67" y="-155.7" font-family="Helvetica,sans-Serif" font-size="9.00">WAYPOINT</text>
</g>
<!-- turns&#45;&gt;loop -->
<g id="edge24" class="edge">
<title>turns&#45;&gt;loop</title>
<path fill="none" stroke="#3b6ea5" d="M99.51,-122.46C118.01,-148.33 155.44,-197.36 195.42,-230.75 291.83,-311.25 433.3,-362.12 506.9,-384.77"/>
<polygon fill="#3b6ea5" stroke="#3b6ea5" points="505.65,-388.05 516.23,-387.6 507.68,-381.35 505.65,-388.05"/>
</g>
<!-- ltime&#45;&gt;loop -->
<g id="edge25" class="edge">
<title>ltime&#45;&gt;loop</title>
<path fill="none" stroke="#3b6ea5" d="M1000.99,-122.48C1002.43,-148.38 1001.62,-197.46 979.42,-230.75 903.72,-344.27 737.76,-380.97 637.39,-392.83"/>
<polygon fill="#3b6ea5" stroke="#3b6ea5" points="637.14,-389.34 627.59,-393.93 637.92,-396.29 637.14,-389.34"/>
</g>
<!-- anchor&#45;&gt;anchor -->
<g id="edge19" class="edge">
<title>anchor&#45;&gt;anchor</title>
<path fill="none" stroke="#27ae60" stroke-dasharray="5,2" d="M853.09,-110.66C864.04,-109.12 870.67,-106.9 870.67,-104 870.67,-102.28 868.33,-100.8 864.14,-99.55"/>
<polygon fill="#27ae60" stroke="#27ae60" points="865.07,-96.17 854.58,-97.64 863.69,-103.03 865.07,-96.17"/>
<text xml:space="preserve" text-anchor="middle" x="886.8" y="-101.08" font-family="Helvetica,sans-Serif" font-size="9.00">correct</text>
</g>
<!-- wpt -->
<g id="node18" class="node">
<title>wpt</title>
<path fill="#eaf1fb" stroke="black" d="M936.17,-36C936.17,-36 858.67,-36 858.67,-36 852.67,-36 846.67,-30 846.67,-24 846.67,-24 846.67,-12 846.67,-12 846.67,-6 852.67,0 858.67,0 858.67,0 936.17,0 936.17,0 942.17,0 948.17,-6 948.17,-12 948.17,-12 948.17,-24 948.17,-24 948.17,-30 942.17,-36 936.17,-36"/>
<text xml:space="preserve" text-anchor="middle" x="897.42" y="-21.05" font-family="Helvetica,sans-Serif" font-size="11.00">WAYPOINT</text>
<text xml:space="preserve" text-anchor="middle" x="897.42" y="-7.55" font-family="Helvetica,sans-Serif" font-size="11.00">hold(hold_time)</text>
</g>
<!-- anchor&#45;&gt;wpt -->
<g id="edge18" class="edge">
<title>anchor&#45;&gt;wpt</title>
<path fill="none" stroke="#3b6ea5" d="M764.81,-72.56C791.04,-61.96 819.9,-50.31 843.99,-40.58"/>
<polygon fill="#3b6ea5" stroke="#3b6ea5" points="844.97,-43.96 852.94,-36.97 842.35,-37.47 844.97,-43.96"/>
</g>
<!-- wpt&#45;&gt;loop -->
<g id="edge26" class="edge">
<title>wpt&#45;&gt;loop</title>
<path fill="none" stroke="#3b6ea5" d="M948.57,-18.51C1010.16,-20.91 1105.42,-35.53 1105.42,-103 1105.42,-303.75 1105.42,-303.75 1105.42,-303.75 1105.42,-350.86 787.91,-381.08 635.38,-392.88"/>
<polygon fill="#3b6ea5" stroke="#3b6ea5" points="635.46,-389.36 625.76,-393.61 635.99,-396.34 635.46,-389.36"/>
</g>
</g>
</svg>
